<svg id="Layer_1" data-name="Layer 1" xmlns="http://www.w3.org/2000/svg" viewBox="0 0 683.56 178.33"><defs><style>.cls-1{fill:#fdbb30;}.cls-2{fill:#fff;}.cls-3{fill:#54c0e8;}</style></defs><title>logo</title><path class="cls-1" d="M151.06,111.23,167,38.07A109.17,109.17,0,0,0,25,111.23Z"/><path class="cls-1" d="M124.21,22.4l-7.82-10.3L107.2,0l-5.89,14L95.74,27.27A116.41,116.41,0,0,1,124.21,22.4Z"/><path class="cls-1" d="M163.93,27.47l-4.78-12.73L153.81.51l-9.65,11.74-8.4,10.22A116.48,116.48,0,0,1,163.93,27.47Z"/><path class="cls-1" d="M28.51,79.86,15.08,81.53,0,83.4,9.16,95.52,17.06,106A116,116,0,0,1,28.51,79.86Z"/><path class="cls-1" d="M85.85,30.76l-10.8-7.25L62.43,15.05l-1,15.16-1,14.65A117.71,117.71,0,0,1,85.85,30.76Z"/><path class="cls-1" d="M34.16,71.25A118.14,118.14,0,0,1,53.75,50.1l-13.9-2.69L24.93,44.52l5,14.36Z"/><path class="cls-2" d="M376.86,46.84l-27.64,3q-3.81-10.66-15.41-10.66-11.38,0-18,11.45a48,48,0,0,0-6.64,24.5,17.51,17.51,0,0,0,4.92,12.65,16.67,16.67,0,0,0,12.54,5.1h.25a26.51,26.51,0,0,0,15.23-4.43l2.09-9.78H326.91l4.1-19H373.5l-9.11,42.75q-21.22,10.56-42.07,10.56-18.79,0-29.81-10.16t-11-28.58a57.82,57.82,0,0,1,7-28.21,49.64,49.64,0,0,1,19.77-19.93q12.77-7.09,29.28-7.1Q369.84,19.07,376.86,46.84Z"/><path class="cls-2" d="M471.2,50.51l-25.86,2.92v-.5q0-6.66-4-9.89a13.59,13.59,0,0,0-8.77-3.24,19.67,19.67,0,0,0-12.12,4.56q-5.89,4.55-9.48,13.9a50.88,50.88,0,0,0-3.56,18.21,17.4,17.4,0,0,0,3.67,11.3q3.67,4.56,10.73,4.55a15.6,15.6,0,0,0,10.94-4.07q4.46-4.06,7.82-12.51l26.26,4.08A46.88,46.88,0,0,1,451,103.46q-11.78,9.6-30.67,9.59-19.69,0-30.11-10.47t-10.41-27.9A63.72,63.72,0,0,1,386,47.9a48.91,48.91,0,0,1,18-21.14q11.87-7.68,28.46-7.69,17.22,0,27.19,8.64T471.2,50.51Z"/><path class="cls-2" d="M564.84,50.51,539,53.43v-.5q0-6.66-4-9.89a13.55,13.55,0,0,0-8.76-3.24,19.62,19.62,0,0,0-12.11,4.56q-5.91,4.55-9.48,13.9a50.9,50.9,0,0,0-3.57,18.21,17.4,17.4,0,0,0,3.67,11.3q3.67,4.56,10.73,4.55a15.6,15.6,0,0,0,10.94-4.07q4.46-4.06,7.82-12.51l26.26,4.08a46.88,46.88,0,0,1-15.88,23.64q-11.77,9.6-30.66,9.59-19.71,0-30.12-10.47t-10.41-27.9a63.57,63.57,0,0,1,6.19-26.78,48.91,48.91,0,0,1,18.05-21.14q11.86-7.68,28.46-7.69,17.22,0,27.19,8.64T564.84,50.51Z"/><path class="cls-2" d="M657.9,50.51,632,53.43v-.5q0-6.66-4-9.89a13.55,13.55,0,0,0-8.76-3.24,19.63,19.63,0,0,0-12.12,4.56q-5.91,4.55-9.48,13.9a50.9,50.9,0,0,0-3.57,18.21,17.35,17.35,0,0,0,3.68,11.3q3.68,4.56,10.73,4.55a15.62,15.62,0,0,0,10.94-4.07q4.46-4.06,7.82-12.51l26.26,4.08a46.89,46.89,0,0,1-15.89,23.64q-11.76,9.6-30.66,9.59-19.71,0-30.11-10.47t-10.41-27.9a63.7,63.7,0,0,1,6.18-26.78,48.91,48.91,0,0,1,18.05-21.14q11.88-7.68,28.47-7.69,17.2,0,27.18,8.64T657.9,50.51Z"/><path class="cls-2" d="M283.12,20.65l-19.79,90.82H240l16.8-69.3h-.37l-33.59,69.3h-20.7l-3.81-69h-.24l-13.08,69H161.61L181,20.65h34.2l3.41,57.54h.24l28.83-57.54Z"/><path class="cls-1" d="M32.19,161.09c-.1-2.92-.21-6.42-.21-10h-.07c-.76,3.1-1.73,6.56-2.63,9.41L26.44,170H22.32l-2.49-9.38c-.77-2.89-1.53-6.31-2.12-9.52h-.07c-.1,3.28-.24,7-.38,10.06l-.45,9.23H11.93l1.49-24.3h7l2.29,8.14c.76,2.78,1.45,5.81,2,8.66h.14c.62-2.81,1.42-6,2.22-8.73l2.45-8.07h6.93l1.25,24.3H32.57Z"/><path class="cls-1" d="M44.38,150.45a2.92,2.92,0,1,1,3-2.92,2.82,2.82,0,0,1-3,2.92Zm-2.59,19.94V152.76h5.26v17.63Z"/><path class="cls-1" d="M51.24,165.63a9.91,9.91,0,0,0,4.54,1.3c1.59,0,2.25-.54,2.25-1.44s-.52-1.37-2.46-2.06c-3.53-1.19-4.88-3.21-4.85-5.26,0-3.32,2.7-5.81,6.89-5.81a10.64,10.64,0,0,1,4.75,1l-.9,3.75a8.65,8.65,0,0,0-3.67-1c-1.28,0-2,.54-2,1.41s.66,1.3,2.74,2c3.22,1.12,4.53,2.85,4.57,5.41,0,3.32-2.46,5.74-7.31,5.74a11.57,11.57,0,0,1-5.47-1.26Z"/><path class="cls-1" d="M66.27,165.63a9.91,9.91,0,0,0,4.54,1.3c1.6,0,2.25-.54,2.25-1.44s-.52-1.37-2.46-2.06c-3.53-1.19-4.88-3.21-4.85-5.26,0-3.32,2.71-5.81,6.9-5.81a10.63,10.63,0,0,1,4.74,1l-.9,3.75a8.65,8.65,0,0,0-3.67-1c-1.28,0-2,.54-2,1.41s.66,1.3,2.74,2c3.22,1.12,4.54,2.85,4.57,5.41,0,3.32-2.46,5.74-7.31,5.74a11.6,11.6,0,0,1-5.47-1.26Z"/><path class="cls-1" d="M83.94,150.45a2.92,2.92,0,1,1,3-2.92,2.81,2.81,0,0,1-3,2.92Zm-2.6,19.94V152.76h5.27v17.63Z"/><path class="cls-1" d="M90.8,165.63a9.86,9.86,0,0,0,4.53,1.3c1.6,0,2.26-.54,2.26-1.44s-.52-1.37-2.46-2.06c-3.54-1.19-4.89-3.21-4.85-5.26,0-3.32,2.7-5.81,6.89-5.81a10.68,10.68,0,0,1,4.75,1l-.91,3.75a8.65,8.65,0,0,0-3.67-1c-1.28,0-2,.54-2,1.41s.66,1.3,2.74,2c3.22,1.12,4.54,2.85,4.57,5.41,0,3.32-2.46,5.74-7.31,5.74a11.6,11.6,0,0,1-5.47-1.26Z"/><path class="cls-1" d="M105.83,165.63a9.91,9.91,0,0,0,4.54,1.3c1.59,0,2.25-.54,2.25-1.44s-.52-1.37-2.46-2.06c-3.53-1.19-4.88-3.21-4.85-5.26,0-3.32,2.7-5.81,6.89-5.81a10.64,10.64,0,0,1,4.75,1l-.9,3.75a8.65,8.65,0,0,0-3.67-1c-1.29,0-2,.54-2,1.41s.66,1.3,2.73,2c3.22,1.12,4.54,2.85,4.58,5.41,0,3.32-2.46,5.74-7.31,5.74a11.64,11.64,0,0,1-5.48-1.26Z"/><path class="cls-1" d="M123.5,150.45a2.92,2.92,0,1,1,3-2.92,2.82,2.82,0,0,1-3,2.92Zm-2.6,19.94V152.76h5.26v17.63Z"/><path class="cls-1" d="M130.39,158.67c0-2.31-.07-4.25-.14-5.91h4.57l.24,2.45h.07a6.51,6.51,0,0,1,5.65-2.85c3.7,0,7,3.35,7,9,0,6.42-3.92,9.45-7.69,9.45a5.19,5.19,0,0,1-4.4-2h-.07v8.77h-5.26Zm5.26,4.15a5.83,5.83,0,0,0,.11,1.15,3.21,3.21,0,0,0,3.08,2.6c2.28,0,3.64-2,3.64-5,0-2.81-1.22-4.94-3.57-4.94a3.35,3.35,0,0,0-3.15,2.78,4.37,4.37,0,0,0-.11,1Z"/><path class="cls-1" d="M151.1,158.67c0-2.31-.07-4.25-.14-5.91h4.57l.25,2.45h.06a6.51,6.51,0,0,1,5.65-2.85c3.71,0,7,3.35,7,9,0,6.42-3.91,9.45-7.69,9.45a5.17,5.17,0,0,1-4.39-2h-.08v8.77H151.1Zm5.26,4.15a5.83,5.83,0,0,0,.11,1.15,3.23,3.23,0,0,0,3.08,2.6c2.29,0,3.64-2,3.64-5,0-2.81-1.21-4.94-3.57-4.94a3.35,3.35,0,0,0-3.15,2.78,4.37,4.37,0,0,0-.11,1Z"/><path class="cls-1" d="M174.41,150.45a2.92,2.92,0,1,1,3-2.92,2.81,2.81,0,0,1-3,2.92Zm-2.6,19.94V152.76h5.27v17.63Z"/><path class="cls-1" d="M208,169.28a25.35,25.35,0,0,1-7.79,1.37c-4.26,0-7.34-1.12-9.49-3.25a12.47,12.47,0,0,1-3.29-8.87c0-8.08,5.68-12.7,13.33-12.7a16.25,16.25,0,0,1,6.48,1.16l-1.11,4.43a11.86,11.86,0,0,0-5.4-1c-4.4,0-7.76,2.59-7.76,7.86,0,5,3.05,8,7.38,8a7.44,7.44,0,0,0,2.56-.33v-5.12h-3.6v-4.29H208Z"/><path class="cls-1" d="M228,164.73c0,2.31.07,4.18.14,5.66h-4.57l-.24-2.49h-.11a6,6,0,0,1-5.3,2.89c-3.46,0-5.95-2.24-5.95-7.68V152.76h5.26v9.48c0,2.56.8,4.12,2.67,4.12a2.81,2.81,0,0,0,2.63-1.92,3,3,0,0,0,.21-1.19V152.76H228Z"/><path class="cls-1" d="M232.22,144.78h5.26v25.61h-5.26Z"/><path class="cls-1" d="M242.33,170.39v-13.6h-2.25v-4h2.25v-.69a8.34,8.34,0,0,1,2.12-5.91,6.77,6.77,0,0,1,4.71-1.77,11.17,11.17,0,0,1,2.77.36l-.21,4.22a5.61,5.61,0,0,0-1.7-.25c-1.73,0-2.46,1.4-2.46,3.14v.9H251v4H247.6v13.6Z"/><path class="cls-1" d="M277.8,169.75a15.12,15.12,0,0,1-6,1c-8.07,0-12.22-5.27-12.22-12.23,0-8.29,5.68-12.87,12.74-12.87a13.19,13.19,0,0,1,5.75,1.08L277,151.1a10.75,10.75,0,0,0-4.44-.9c-4.15,0-7.41,2.63-7.41,8.08,0,4.86,2.77,7.93,7.45,7.93a12.32,12.32,0,0,0,4.43-.79Z"/><path class="cls-1" d="M288.19,170.79c-4.95,0-8.76-3.39-8.76-9.09s3.6-9.34,9.08-9.34c5.16,0,8.62,3.72,8.62,9,0,6.42-4.4,9.38-8.9,9.38Zm.11-3.93c2.07,0,3.36-2.13,3.36-5.3,0-2.6-1-5.27-3.36-5.27s-3.47,2.67-3.47,5.3c0,3,1.21,5.27,3.43,5.27Z"/><path class="cls-1" d="M314.48,166.14a23.44,23.44,0,0,0,.28,4.25H310l-.31-1.76h-.1a6,6,0,0,1-4.85,2.16,5.29,5.29,0,0,1-5.47-5.41c0-4.58,4-6.75,9.94-6.75v-.21c0-.94-.49-2.27-3.08-2.27a9.55,9.55,0,0,0-4.68,1.3l-1-3.5a13.42,13.42,0,0,1,6.58-1.59c5.65,0,7.41,3.46,7.41,7.61Zm-5.09-4.08c-2.77,0-4.92.69-4.92,2.78a1.92,1.92,0,0,0,2.08,2.09,2.93,2.93,0,0,0,2.74-2,4,4,0,0,0,.1-.94Z"/><path class="cls-1" d="M318.64,165.63a9.91,9.91,0,0,0,4.54,1.3c1.59,0,2.25-.54,2.25-1.44s-.52-1.37-2.46-2.06c-3.53-1.19-4.89-3.21-4.85-5.26,0-3.32,2.7-5.81,6.89-5.81a10.64,10.64,0,0,1,4.75,1l-.9,3.75a8.66,8.66,0,0,0-3.68-1c-1.28,0-2,.54-2,1.41s.65,1.3,2.73,2c3.23,1.12,4.54,2.85,4.58,5.41,0,3.32-2.46,5.74-7.31,5.74a11.64,11.64,0,0,1-5.48-1.26Z"/><path class="cls-1" d="M339.6,148v4.8h3.77v4H339.6v6.43c0,2.13.51,3.1,2.07,3.1a6.08,6.08,0,0,0,1.56-.15l0,4.15a10.76,10.76,0,0,1-3.4.47,5.48,5.48,0,0,1-4-1.51c-1-1.05-1.46-2.75-1.46-5.24v-7.25h-2.25v-4h2.25v-3.32Z"/><path class="cls-1" d="M370.7,169.75a15.16,15.16,0,0,1-6,1c-8.07,0-12.23-5.27-12.23-12.23,0-8.29,5.68-12.87,12.75-12.87a13.23,13.23,0,0,1,5.75,1.08l-1.11,4.33a10.74,10.74,0,0,0-4.43-.9c-4.16,0-7.42,2.63-7.42,8.08,0,4.86,2.78,7.93,7.45,7.93a12.37,12.37,0,0,0,4.44-.79Z"/><path class="cls-1" d="M381.09,170.79c-4.95,0-8.77-3.39-8.77-9.09s3.61-9.34,9.08-9.34c5.16,0,8.63,3.72,8.63,9,0,6.42-4.4,9.38-8.91,9.38Zm.1-3.93c2.08,0,3.36-2.13,3.36-5.3,0-2.6-1-5.27-3.36-5.27s-3.46,2.67-3.46,5.3c0,3,1.21,5.27,3.43,5.27Z"/><path class="cls-1" d="M393.28,158.38c0-2.2-.07-4-.14-5.62h4.47l.21,2.41h.1a5.83,5.83,0,0,1,5.13-2.81,4.78,4.78,0,0,1,4.64,3h.07a7.48,7.48,0,0,1,2.22-2.17,6.23,6.23,0,0,1,3.22-.86c3.26,0,5.71,2.38,5.71,7.65v10.38h-5.12v-9.55c0-2.56-.8-4.05-2.5-4.05a2.66,2.66,0,0,0-2.46,1.92,6,6,0,0,0-.17,1.37v10.31h-5.12v-9.88c0-2.2-.77-3.72-2.46-3.72a2.72,2.72,0,0,0-2.46,2,3.75,3.75,0,0,0-.21,1.41v10.24h-5.13Z"/><path class="cls-1" d="M423.07,158.38c0-2.2-.07-4-.14-5.62h4.47l.21,2.41h.1a5.84,5.84,0,0,1,5.13-2.81,4.78,4.78,0,0,1,4.64,3h.07a7.6,7.6,0,0,1,2.22-2.17,6.23,6.23,0,0,1,3.22-.86c3.25,0,5.71,2.38,5.71,7.65v10.38h-5.12v-9.55c0-2.56-.8-4.05-2.5-4.05a2.65,2.65,0,0,0-2.46,1.92,6,6,0,0,0-.17,1.37v10.31h-5.13v-9.88c0-2.2-.76-3.72-2.46-3.72a2.74,2.74,0,0,0-2.46,2,4,4,0,0,0-.2,1.41v10.24h-5.13Z"/><path class="cls-1" d="M468.83,164.73c0,2.31.07,4.18.13,5.66h-4.57l-.24-2.49h-.1a6,6,0,0,1-5.3,2.89c-3.47,0-6-2.24-6-7.68V152.76h5.26v9.48c0,2.56.8,4.12,2.67,4.12a2.8,2.8,0,0,0,2.63-1.92,3,3,0,0,0,.21-1.19V152.76h5.27Z"/><path class="cls-1" d="M473.05,158.38c0-2.2-.07-4-.14-5.62h4.58l.24,2.45h.1a6,6,0,0,1,5.23-2.85c3.47,0,6.06,2.42,6.06,7.61v10.42h-5.26v-9.77c0-2.27-.76-3.83-2.67-3.83a2.91,2.91,0,0,0-2.7,2.06,4.08,4.08,0,0,0-.17,1.37v10.17h-5.27Z"/><path class="cls-1" d="M496,150.45a2.92,2.92,0,1,1,3-2.92,2.81,2.81,0,0,1-3,2.92Zm-2.6,19.94V152.76h5.26v17.63Z"/><path class="cls-1" d="M508.73,148v4.8h3.77v4h-3.77v6.43c0,2.13.52,3.1,2.08,3.1a6.13,6.13,0,0,0,1.56-.15l0,4.15a10.76,10.76,0,0,1-3.4.47,5.52,5.52,0,0,1-4-1.51c-1-1.05-1.45-2.75-1.45-5.24v-7.25h-2.26v-4h2.26v-3.32Z"/><path class="cls-1" d="M519.71,152.76l2.53,8.65c.27,1.05.62,2.35.83,3.29h.1c.24-.94.52-2.28.76-3.29l2.08-8.65h5.65l-3.95,11.61c-2.42,7-4.05,9.78-6,11.54a9.1,9.1,0,0,1-5.09,2.42l-1.11-4.62a8.1,8.1,0,0,0,2.29-.94,6.13,6.13,0,0,0,2.18-2.2,1.58,1.58,0,0,0,.28-.79,2.5,2.5,0,0,0-.21-.9l-6.24-16.12Z"/><path class="cls-1" d="M558.16,169.75a15.2,15.2,0,0,1-6,1c-8.07,0-12.23-5.27-12.23-12.23,0-8.29,5.68-12.87,12.75-12.87a13.23,13.23,0,0,1,5.75,1.08l-1.11,4.33a10.75,10.75,0,0,0-4.44-.9c-4.15,0-7.41,2.63-7.41,8.08,0,4.86,2.77,7.93,7.45,7.93a12.28,12.28,0,0,0,4.43-.79Z"/><path class="cls-1" d="M568.55,170.79c-5,0-8.77-3.39-8.77-9.09s3.61-9.34,9.08-9.34c5.16,0,8.62,3.72,8.62,9,0,6.42-4.4,9.38-8.9,9.38Zm.1-3.93c2.08,0,3.36-2.13,3.36-5.3,0-2.6-1-5.27-3.36-5.27s-3.46,2.67-3.46,5.3c0,3,1.21,5.27,3.42,5.27Z"/><path class="cls-1" d="M580.74,144.78H586v25.61h-5.26Z"/><path class="cls-1" d="M590.23,144.78h5.27v25.61h-5.27Z"/><path class="cls-1" d="M603.77,163.29c.18,2.31,2.32,3.39,4.78,3.39a13.59,13.59,0,0,0,4.68-.76l.69,3.72a15.56,15.56,0,0,1-6.13,1.11c-5.75,0-9-3.46-9-9,0-4.47,2.7-9.42,8.55-9.42,5.48,0,7.56,4.44,7.56,8.8a14.46,14.46,0,0,1-.18,2.21Zm6.2-3.75c0-1.3-.55-3.57-2.94-3.57s-3.16,2.12-3.29,3.57Z"/><path class="cls-1" d="M634,167.83c0,3.39-.65,6.17-2.59,7.94a10.08,10.08,0,0,1-6.86,2.16,13.21,13.21,0,0,1-6.1-1.33l1-4.19a10,10,0,0,0,4.92,1.34c2.49,0,4.4-1.37,4.4-4.66V168h-.07a5.4,5.4,0,0,1-4.57,2.27c-4.19,0-7.17-3.53-7.17-8.58,0-5.7,3.49-9.31,7.69-9.31a5.07,5.07,0,0,1,4.64,2.49h.07l.17-2.09h4.57c-.07,1.15-.14,2.63-.14,5.26Zm-5.26-7.9a4.85,4.85,0,0,0-.1-1,2.92,2.92,0,0,0-2.85-2.42c-1.93,0-3.46,1.8-3.46,5,0,2.63,1.25,4.69,3.43,4.69a2.91,2.91,0,0,0,2.81-2.2,5.18,5.18,0,0,0,.17-1.48Z"/><path class="cls-1" d="M642.32,163.29c.18,2.31,2.32,3.39,4.78,3.39a13.59,13.59,0,0,0,4.68-.76l.69,3.72a15.56,15.56,0,0,1-6.13,1.11c-5.75,0-9-3.46-9-9,0-4.47,2.7-9.42,8.55-9.42,5.48,0,7.56,4.44,7.56,8.8a14.46,14.46,0,0,1-.18,2.21Zm6.2-3.75c0-1.3-.55-3.57-2.94-3.57s-3.15,2.12-3.29,3.57Z"/><path class="cls-3" d="M563.16,113.05c-8.35,7.79-26.68,13-49.2,13s-38.62-5.57-46.62-13c-8.73,8.14-32.69,13-50.84,13s-33.49-5.15-41.94-13c-7.55,7-16,10.76-49.63,10.76H20.8l-4.39,12.57H644.72s3-6.92,5.09-12.57C624.26,127.17,578.15,128,563.16,113.05Z"/><path class="cls-2" d="M675.29,23.74a7.76,7.76,0,1,1-7.73-7.54A7.58,7.58,0,0,1,675.29,23.74Zm-13.58,0a5.85,5.85,0,0,0,5.89,6,5.77,5.77,0,0,0,5.75-6,5.82,5.82,0,1,0-11.64-.05Zm4.65,4h-1.75V20.15a16,16,0,0,1,2.9-.23,4.6,4.6,0,0,1,2.62.56,2.05,2.05,0,0,1,.74,1.65,1.93,1.93,0,0,1-1.57,1.75V24a2.24,2.24,0,0,1,1.39,1.84,5.7,5.7,0,0,0,.55,1.89h-1.89a6.54,6.54,0,0,1-.6-1.84c-.13-.83-.59-1.2-1.56-1.2h-.83Zm0-4.28h.82c1,0,1.75-.32,1.75-1.1s-.5-1.15-1.61-1.15a3.91,3.91,0,0,0-1,.09Z"/></svg>