<svg xmlns="http://www.w3.org/2000/svg" viewBox="0 0 140 140" class="Download__qr___UcB71rDzcr"><path d="M50.094.428h-2.891a2.365 2.365 0 1 0 0 4.73h3.226V.428h-.335zm3.562 0h-3.227v4.73H53.656a2.365 2.365 0 0 0 0-4.73zm21.936 0a2.365 2.365 0 1 1 0 4.73 2.365 2.365 0 0 1 0-4.73zm-27.96 5.591a2.365 2.365 0 1 1 0 4.73 2.365 2.365 0 0 1 0-4.73zm27.96 0a2.365 2.365 0 1 1 0 4.73 2.365 2.365 0 0 1 0-4.73zm16.775 0a2.365 2.365 0 1 1 0 4.73 2.365 2.365 0 0 1 0-4.73zm-36.682 5.592h-2.891a2.365 2.365 0 1 0 0 4.73h3.227v-4.73h-.336zM59.247 11.61h-3.226v4.731h3.226a2.365 2.365 0 0 0 0-4.73zm13.213 0H69.57a2.365 2.365 0 1 0 0 4.731h3.227v-4.73h-.336z"></path><path d="M75.591 11.61h-2.795v4.731H78.387v-4.73h-2.796zm5.592 0h-2.796v4.731h5.592v-4.73h-2.796zM87.205 11.61H83.98v4.731h3.226a2.365 2.365 0 0 0 0-4.73zm-37.111 5.593h-2.891a2.365 2.365 0 1 0 0 4.73h3.226v-4.73h-.335zm3.131 0H50.43v4.73h5.592v-4.73h-2.796z"></path><path d="M59.247 17.203h-3.226v4.73h3.226a2.365 2.365 0 0 0 0-4.73zm13.213 0H69.57a2.365 2.365 0 1 0 0 4.73h3.227v-4.73h-.336z"></path><path d="M75.591 17.203h-2.795v4.73H78.387v-4.73h-2.796zm6.023 0H78.388v4.73h3.226a2.365 2.365 0 0 0 0-4.73zm-25.929 5.591h-2.891a2.365 2.365 0 1 0 0 4.731h3.227v-4.73h-.336z"></path><path d="M58.817 22.794H56.02v4.731H61.612v-4.73h-2.795zm5.591 0h-2.796v4.731h5.592v-4.73h-2.796z"></path><path d="M70 22.794h-2.796v4.731h5.592v-4.73H70ZM75.591 22.794h-2.795v4.731H78.387v-4.73h-2.796zm5.592 0h-2.796v4.731h5.592v-4.73h-2.796zM86.775 22.794h-2.796v4.731h5.592v-4.73h-2.796zm6.022 0h-3.226v4.731h3.226a2.365 2.365 0 0 0 0-4.73zm-39.573 5.592a2.365 2.365 0 1 1 0 4.73 2.365 2.365 0 0 1 0-4.73zm11.185 0a2.365 2.365 0 1 1 0 4.73 2.365 2.365 0 0 1 0-4.73zm16.774 0a2.365 2.365 0 1 1 0 4.73 2.365 2.365 0 0 1 0-4.73zm11.184 0a2.365 2.365 0 1 1 0 4.73 2.365 2.365 0 0 1 0-4.73zm-44.734 5.591a2.365 2.365 0 1 1 0 4.731 2.365 2.365 0 0 1 0-4.73zm11.183 0a2.365 2.365 0 1 1 0 4.731 2.365 2.365 0 0 1 0-4.73zm11.184 0a2.365 2.365 0 1 1 0 4.731 2.365 2.365 0 0 1 0-4.73zm11.183 0a2.365 2.365 0 1 1 0 4.731 2.365 2.365 0 0 1 0-4.73zm11.184 0a2.365 2.365 0 1 1 0 4.731 2.365 2.365 0 0 1 0-4.73zM47.633 39.57a2.365 2.365 0 1 1 0 4.73 2.365 2.365 0 0 1 0-4.73zm13.644 0h-2.891a2.365 2.365 0 1 0 0 4.73h3.226v-4.73h-.335zm3.131 0h-2.796v4.73h5.592v-4.73h-2.796z"></path><path d="M70.43 39.57H67.204v4.73h3.226a2.365 2.365 0 0 0 0-4.73zm10.753 0a2.365 2.365 0 1 1 0 4.73 2.365 2.365 0 0 1 0-4.73zm11.184 0a2.365 2.365 0 1 1 0 4.73 2.365 2.365 0 0 1 0-4.73zM2.899 45.16a2.365 2.365 0 1 1 0 4.73 2.365 2.365 0 0 1 0-4.73zm13.644 0h-2.891a2.365 2.365 0 1 0 0 4.73h3.226v-4.73h-.335zM20.105 45.161h-3.227v4.73H20.105a2.365 2.365 0 0 0 0-4.73zm13.213 0h-2.891a2.365 2.365 0 1 0 0 4.73h3.226v-4.73h-.335zm3.131 0h-2.796v4.73h5.592v-4.73h-2.796zM42.471 45.161h-3.226v4.73h3.226a2.365 2.365 0 0 0 0-4.73zm16.345 0a2.365 2.365 0 1 1 0 4.73 2.365 2.365 0 0 1 0-4.73zm11.184 0a2.365 2.365 0 1 1 0 4.73 2.365 2.365 0 0 1 0-4.73zm33.55 0a2.365 2.365 0 1 1 0 4.73 2.365 2.365 0 0 1 0-4.73zm16.775 0a2.365 2.365 0 1 1 .001 4.731 2.365 2.365 0 0 1-.001-4.73zm13.645 0h-2.891a2.366 2.366 0 1 0 0 4.73h3.226v-4.73h-.335zm3.561 0h-3.226v4.73h3.226a2.365 2.365 0 1 0 0-4.73zM5.359 50.752H2.47a2.365 2.365 0 1 0 0 4.731h3.226v-4.73h-.336zM8.49 50.752H5.696v4.731h5.592v-4.73H8.49zm5.592 0h-2.795v4.731H16.878v-4.73h-2.796zM19.674 50.752h-2.796v4.731h5.592v-4.73h-2.796zm6.022 0H22.47v4.731h3.226a2.365 2.365 0 0 0 0-4.73zm18.805 0H41.61a2.365 2.365 0 1 0 0 4.731h3.227v-4.73H44.5zm3.132 0h-2.796v4.731h5.592v-4.73h-2.796zm5.592 0H50.43v4.731h5.592v-4.73h-2.796z"></path><path d="M58.817 50.752H56.02v4.731H61.612v-4.73h-2.795zm5.591 0h-2.796v4.731h5.592v-4.73h-2.796z"></path><path d="M70.43 50.752H67.204v4.731h3.226a2.365 2.365 0 0 0 0-4.73zm10.753 0a2.365 2.365 0 1 1 0 4.73 2.365 2.365 0 0 1 0-4.73zm11.184 0a2.365 2.365 0 1 1 0 4.731 2.365 2.365 0 0 1 0-4.73zm16.775 0a2.365 2.365 0 1 1 0 4.73 2.365 2.365 0 0 1 0-4.73zm22.367 0a2.365 2.365 0 1 1 0 4.73 2.365 2.365 0 0 1 0-4.73zM10.951 56.345H8.06a2.365 2.365 0 1 0 0 4.73h3.226v-4.73h-.335zm3.562 0h-3.226v4.73h3.226a2.365 2.365 0 0 0 0-4.73zm18.805 0h-2.891a2.365 2.365 0 1 0 0 4.73h3.226v-4.73h-.335zm3.131 0h-2.796v4.73h5.592v-4.73h-2.796zM42.04 56.345h-2.795v4.73h5.592v-4.73H42.04zm6.024 0h-3.227v4.73H48.064a2.365 2.365 0 0 0 0-4.73zm16.345 0a2.365 2.365 0 1 1 0 4.73 2.365 2.365 0 0 1 0-4.73zm13.643 0H75.16a2.365 2.365 0 1 0 0 4.73h3.226v-4.73h-.335zm3.562 0H78.388v4.73h3.226a2.365 2.365 0 0 0 0-4.73zM2.899 61.937a2.365 2.365 0 1 1 0 4.73 2.365 2.365 0 0 1 0-4.73zm11.184 0a2.365 2.365 0 1 1 0 4.73 2.365 2.365 0 0 1 0-4.73zm13.643 0h-2.891a2.365 2.365 0 1 0 0 4.73h3.227v-4.73h-.336zM31.288 61.937H28.062v4.73h3.226a2.365 2.365 0 0 0 0-4.73zm18.806 0h-2.891a2.365 2.365 0 1 0 0 4.73h3.226v-4.73h-.335zm3.131 0H50.43v4.73h5.592v-4.73h-2.796z"></path><path d="M58.817 61.937H56.02v4.73H61.612v-4.73h-2.795zm6.022 0H61.612v4.73H64.84a2.365 2.365 0 0 0 0-4.73zm10.753 0a2.365 2.365 0 1 1 0 4.73 2.365 2.365 0 0 1 0-4.73zm11.183 0a2.365 2.365 0 1 1 0 4.73 2.365 2.365 0 0 1 0-4.73zm11.184 0a2.365 2.365 0 1 1 0 4.73 2.365 2.365 0 0 1 0-4.73zm19.235 0h-2.891a2.365 2.365 0 1 0 0 4.73h3.226v-4.73h-.335zm3.131 0h-2.796v4.73h5.592v-4.73h-2.796zm6.023 0H123.122v4.73h3.226a2.365 2.365 0 0 0 0-4.73zM2.899 67.528a2.365 2.365 0 1 1 0 4.73 2.365 2.365 0 0 1 0-4.73zm19.235 0h-2.89a2.365 2.365 0 1 0 0 4.73h3.226v-4.73h-.336zm3.562 0H22.47v4.73h3.226a2.365 2.365 0 0 0 0-4.73zm13.213 0h-2.89a2.365 2.365 0 1 0 0 4.73h3.226v-4.73h-.335zM42.04 67.528h-2.795v4.73h5.592v-4.73H42.04zm6.024 0h-3.227v4.73H48.064a2.365 2.365 0 0 0 0-4.73zm16.345 0a2.365 2.365 0 1 1 0 4.73 2.365 2.365 0 0 1 0-4.73zm13.643 0H75.16a2.365 2.365 0 1 0 0 4.73h3.226v-4.73h-.335zm3.562 0H78.388v4.73h3.226a2.365 2.365 0 0 0 0-4.73zm18.805 0h-2.891a2.365 2.365 0 1 0 0 4.73h3.226v-4.73h-.335zm3.562 0h-3.227v4.73H103.981a2.365 2.365 0 0 0 0-4.73zm10.752 0a2.365 2.365 0 1 1 .001 4.731 2.365 2.365 0 0 1-.001-4.73zm13.645 0h-2.891a2.365 2.365 0 1 0 0 4.73h3.226v-4.73h-.335zm3.131 0h-2.796v4.73h5.592v-4.73h-2.796zm6.022 0h-3.226v4.73h3.226a2.366 2.366 0 1 0 0-4.73zM16.543 73.12h-2.891a2.365 2.365 0 1 0 0 4.73h3.226v-4.73h-.335zM20.105 73.12h-3.227v4.73H20.105a2.365 2.365 0 0 0 0-4.73zm10.753 0a2.365 2.365 0 1 1 0 4.73 2.365 2.365 0 0 1 0-4.73zm19.236 0h-2.891a2.365 2.365 0 1 0 0 4.73h3.226v-4.73h-.335zm3.131 0H50.43v4.73h5.592v-4.73h-2.796z"></path><path d="M58.817 73.12H56.02v4.73H61.612v-4.73h-2.795zm6.022 0H61.612v4.73H64.84a2.365 2.365 0 0 0 0-4.73zm21.936 0a2.365 2.365 0 1 1 0 4.73 2.365 2.365 0 0 1 0-4.73zm13.644 0h-2.891a2.365 2.365 0 1 0 0 4.73h3.226v-4.73h-.335zm3.131 0h-2.796v4.73h5.592v-4.73h-2.796zm5.592 0h-2.796v4.73H111.937v-4.73h-2.795zm6.022 0H111.938v4.73h3.226a2.365 2.365 0 0 0 0-4.73zm21.936 0a2.365 2.365 0 1 1 0 4.73 2.365 2.365 0 0 1 0-4.73zM8.491 78.712a2.365 2.365 0 1 1 0 4.73 2.365 2.365 0 0 1 0-4.73zm24.827 0h-2.891a2.365 2.365 0 1 0 0 4.73h3.226v-4.73h-.335zm3.562 0h-3.227v4.73H36.88a2.365 2.365 0 0 0 0-4.73zm10.753 0a2.365 2.365 0 1 1 0 4.73 2.365 2.365 0 0 1 0-4.73zm11.183 0a2.365 2.365 0 1 1 0 4.73 2.365 2.365 0 0 1 0-4.73zm13.644 0H69.57a2.365 2.365 0 1 0 0 4.73h3.227v-4.73h-.336z"></path><path d="M76.022 78.712h-3.226v4.73h3.226a2.365 2.365 0 0 0 0-4.73zm24.397 0h-2.891a2.365 2.365 0 1 0 0 4.73h3.226v-4.73h-.335zm3.562 0h-3.227v4.73H103.981a2.365 2.365 0 0 0 0-4.73zm10.752 0a2.365 2.365 0 1 1 .001 4.73 2.365 2.365 0 0 1-.001-4.73zm13.645 0h-2.891a2.365 2.365 0 1 0 0 4.73h3.226v-4.73h-.335zm3.562 0H128.713v4.73H131.94a2.365 2.365 0 0 0 0-4.73zM2.9 84.303a2.365 2.365 0 1 1 0 4.73 2.365 2.365 0 0 1 0-4.73zm19.234 0h-2.89a2.365 2.365 0 1 0 0 4.73h3.226v-4.73h-.336zm3.562 0H22.47v4.73h3.226a2.365 2.365 0 0 0 0-4.73zm33.12 0a2.365 2.365 0 1 1 0 4.73 2.365 2.365 0 0 1 0-4.73zm11.184 0a2.365 2.365 0 1 1 0 4.73 2.365 2.365 0 0 1 0-4.73zm36.01 0h-2.891a2.365 2.365 0 0 0 0 4.73h3.227v-4.73h-.336zm3.132 0h-2.796v4.73H111.937v-4.73h-2.795zm5.591 0h-2.795v4.73H117.529v-4.73h-2.796zm6.022 0h-3.226v4.73h3.226a2.366 2.366 0 1 0 0-4.73zm16.345 0a2.365 2.365 0 1 1 0 4.73 2.365 2.365 0 0 1 0-4.73zM19.674 89.895a2.365 2.365 0 1 1 0 4.73 2.365 2.365 0 0 1 0-4.73zm13.644 0h-2.891a2.365 2.365 0 1 0 0 4.73h3.226v-4.73h-.335zm3.562 0h-3.227v4.73H36.88a2.365 2.365 0 0 0 0-4.73zm10.753 0a2.365 2.365 0 1 1 0 4.73 2.365 2.365 0 0 1 0-4.73zm16.776 0a2.365 2.365 0 1 1 0 4.73 2.365 2.365 0 0 1 0-4.73zm11.183 0a2.365 2.365 0 1 1 0 4.73 2.365 2.365 0 0 1 0-4.73zm13.643 0h-2.891a2.365 2.365 0 1 0 0 4.73h3.227v-4.73h-.336zm3.132 0H89.57v4.73H95.162v-4.73h-2.795z"></path><path d="M97.958 89.895h-2.796v4.73h5.592v-4.73h-2.796zm5.592 0h-2.796v4.73h5.592v-4.73h-2.796zm5.592 0h-2.796v4.73H111.937v-4.73h-2.795zm5.591 0h-2.795v4.73H117.529v-4.73h-2.796zm5.592 0h-2.796v4.73h5.592v-4.73h-2.796zm5.592 0h-2.795v4.73H128.713v-4.73h-2.796zm5.592 0h-2.796v4.73h5.592v-4.73h-2.796zm6.022 0h-3.226v4.73h3.226a2.366 2.366 0 1 0 0-4.73zm-87.437 5.592h-2.891a2.365 2.365 0 1 0 0 4.73h3.226v-4.73h-.335zm3.131 0H50.43v4.73h5.592v-4.73h-2.796z"></path><path d="M59.247 95.487h-3.226v4.73h3.226a2.365 2.365 0 1 0 0-4.73zm13.213 0H69.57a2.365 2.365 0 1 0 0 4.73h3.227v-4.73h-.336z"></path><path d="M76.022 95.487h-3.226v4.73h3.226a2.365 2.365 0 1 0 0-4.73zm16.345 0a2.365 2.365 0 1 1 0 4.73 2.365 2.365 0 0 1 0-4.73zm22.366 0a2.365 2.365 0 1 1 .001 4.73 2.365 2.365 0 0 1-.001-4.73zm22.367 0a2.365 2.365 0 1 1 0 4.729 2.365 2.365 0 0 1 0-4.73zm-87.006 5.592h-2.891a2.365 2.365 0 1 0 0 4.73h3.226v-4.73h-.335zm3.562 0h-3.227v4.73H53.656a2.365 2.365 0 1 0 0-4.73zm13.213 0h-2.891a2.365 2.365 0 1 0 0 4.73h3.226v-4.73h-.335zM70 101.079h-2.796v4.73h5.592v-4.73H70ZM76.022 101.079h-3.226v4.73h3.226a2.365 2.365 0 0 0 0-4.73zm16.345 0a2.365 2.365 0 1 1 0 4.73 2.365 2.365 0 0 1 0-4.73zm11.183 0a2.365 2.365 0 1 1 0 4.73 2.365 2.365 0 0 1 0-4.73zm13.644 0h-2.891a2.365 2.365 0 1 0 0 4.73h3.226v-4.73h-.335zm3.131 0h-2.796v4.73h5.592v-4.73h-2.796zm5.592 0h-2.795v4.73H128.713v-4.73h-2.796zm5.592 0h-2.796v4.73h5.592v-4.73h-2.796zm6.022 0h-3.226v4.73h3.226a2.365 2.365 0 1 0 0-4.73zm-89.898 5.591a2.365 2.365 0 1 1 0 4.73 2.365 2.365 0 0 1 0-4.73zm11.183 0a2.365 2.365 0 1 1 0 4.73 2.365 2.365 0 0 1 0-4.73zm11.184 0a2.365 2.365 0 1 1 0 4.73 2.365 2.365 0 0 1 0-4.73zm13.644 0h-2.891a2.365 2.365 0 1 0 0 4.731h3.226v-4.731h-.335z"></path><path d="M86.775 106.67h-2.796v4.731h5.592v-4.731h-2.796zm6.022 0h-3.226v4.731h3.226a2.366 2.366 0 0 0 0-4.731zm21.936 0a2.365 2.365 0 1 1 .001 4.73 2.365 2.365 0 0 1-.001-4.73zm16.776 0a2.365 2.365 0 1 1 0 4.73 2.365 2.365 0 0 1 0-4.73zm-78.285 5.592a2.365 2.365 0 1 1 0 4.73 2.365 2.365 0 0 1 0-4.73zm11.185 0a2.365 2.365 0 1 1 0 4.73 2.365 2.365 0 0 1 0-4.73zm30.418 0h-2.891a2.365 2.365 0 1 0 0 4.73h3.226v-4.73h-.335z"></path><path d="M97.958 112.262h-2.796v4.73h5.592v-4.73h-2.796zm5.592 0h-2.796v4.73h5.592v-4.73h-2.796zm5.592 0h-2.796v4.73H111.937v-4.73h-2.795zm6.022 0H111.938v4.73h3.226a2.365 2.365 0 0 0 0-4.73zm21.936 0a2.365 2.365 0 1 1 0 4.73 2.365 2.365 0 0 1 0-4.73zm-89.467 5.592a2.365 2.365 0 1 1 0 4.73 2.365 2.365 0 0 1 0-4.73zm11.183 0a2.365 2.365 0 1 1 0 4.73 2.365 2.365 0 0 1 0-4.73zm11.184 0a2.365 2.365 0 1 1 0 4.73 2.365 2.365 0 0 1 0-4.73zm13.644 0h-2.891a2.365 2.365 0 1 0 0 4.73h3.226v-4.73h-.335zM86.775 117.854h-2.796v4.73h5.592v-4.73h-2.796zm5.592 0H89.57v4.73H95.162v-4.73h-2.795z"></path><path d="M97.958 117.854h-2.796v4.73h5.592v-4.73h-2.796zm6.023 0h-3.227v4.73H103.981a2.365 2.365 0 0 0 0-4.73zm10.752 0a2.365 2.365 0 1 1 .001 4.73 2.365 2.365 0 0 1-.001-4.73zm13.645 0h-2.891a2.365 2.365 0 1 0 0 4.73h3.226v-4.73h-.335zm3.131 0h-2.796v4.73h5.592v-4.73h-2.796zm6.022 0h-3.226v4.73h3.226a2.365 2.365 0 1 0 0-4.73zm-87.437 5.591h-2.891a2.366 2.366 0 0 0 0 4.731h3.226v-4.731h-.335zm3.562 0h-3.227v4.731H53.656a2.365 2.365 0 1 0 0-4.731zm10.753 0a2.365 2.365 0 1 1 0 4.73 2.365 2.365 0 0 1 0-4.73zm24.826 0h-2.891a2.366 2.366 0 0 0 0 4.731h3.227v-4.731h-.336zm3.132 0H89.57v4.731H95.162v-4.731h-2.795z"></path><path d="M97.958 123.445h-2.796v4.731h5.592v-4.731h-2.796zm5.592 0h-2.796v4.731h5.592v-4.731h-2.796zm5.592 0h-2.796v4.731H111.937v-4.731h-2.795zm5.591 0h-2.795v4.731H117.529v-4.731h-2.796zm5.592 0h-2.796v4.731h5.592v-4.731h-2.796zm5.592 0h-2.795v4.731H128.713v-4.731h-2.796zm6.023 0H128.713v4.731H131.94a2.365 2.365 0 0 0 0-4.731zm-73.124 5.592a2.365 2.365 0 1 1 0 4.73 2.365 2.365 0 0 1 0-4.73zm13.644 0H69.57a2.365 2.365 0 1 0 0 4.73h3.227v-4.73h-.336z"></path><path d="M75.591 129.037h-2.795v4.73H78.387v-4.73h-2.796zm6.023 0H78.388v4.73h3.226a2.365 2.365 0 0 0 0-4.73zm21.936 0a2.365 2.365 0 1 1 0 4.73 2.365 2.365 0 0 1 0-4.73zm11.183 0a2.365 2.365 0 1 1 .001 4.73 2.365 2.365 0 0 1-.001-4.73zm11.184 0a2.365 2.365 0 1 1 0 4.73 2.365 2.365 0 0 1 0-4.73zm-75.823 5.591h-2.891a2.366 2.366 0 0 0 0 4.731h3.226v-4.731h-.335zm3.562 0h-3.227v4.731H53.656a2.365 2.365 0 1 0 0-4.731zm18.804 0H69.57a2.366 2.366 0 0 0 0 4.731h3.227v-4.731h-.336z"></path><path d="M75.591 134.628h-2.795v4.731H78.387v-4.731h-2.796zm6.023 0H78.388v4.731h3.226a2.365 2.365 0 0 0 0-4.731zm18.805 0h-2.891a2.366 2.366 0 0 0 0 4.731h3.226v-4.731h-.335zm3.131 0h-2.796v4.731h5.592v-4.731h-2.796zm5.592 0h-2.796v4.731H111.937v-4.731h-2.795zm5.591 0h-2.795v4.731H117.529v-4.731h-2.796zm5.592 0h-2.796v4.731h5.592v-4.731h-2.796zm5.592 0h-2.795v4.731H128.713v-4.731h-2.796zm5.592 0h-2.796v4.731h5.592v-4.731h-2.796zm6.022 0h-3.226v4.731h3.226a2.365 2.365 0 1 0 0-4.731zM25.881 0H13.468C7.417 0 2.29 3.998.65 9.461a12.966 12.966 0 0 0-.548 3.75v12.71c0 7.287 5.997 13.214 13.364 13.214h12.415c7.366 0 13.363-5.927 13.363-13.215V13.21C39.245 5.926 33.25 0 25.882 0zm7.493 25.92c0 4.05-3.36 7.343-7.494 7.343l-6.206.002-6.206-.002c-4.133 0-7.493-3.294-7.493-7.343V13.21a7.18 7.18 0 0 1 .905-3.495A7.447 7.447 0 0 1 9.169 7.2a7.557 7.557 0 0 1 4.297-1.33h12.416c4.131 0 7.492 3.293 7.492 7.34v12.71zM126.533 0h-12.415c-6.051 0-11.177 3.998-12.816 9.461a13.044 13.044 0 0 0-.548 3.75v12.71c0 7.287 5.997 13.214 13.364 13.214h12.415c7.366 0 13.363-5.927 13.363-13.215V13.21C139.896 5.926 133.9 0 126.533 0zm7.492 25.92c0 4.05-3.361 7.343-7.494 7.343l-6.206.002-6.206-.002c-4.133 0-7.494-3.294-7.494-7.343V13.21c0-1.264.328-2.455.906-3.495A7.447 7.447 0 0 1 109.82 7.2a7.554 7.554 0 0 1 4.297-1.33h12.416c4.131 0 7.492 3.293 7.492 7.34v12.71zM25.882 100.651H13.467c-6.05 0-11.177 3.997-12.816 9.461a12.99 12.99 0 0 0-.548 3.749v12.71c0 7.288 5.997 13.215 13.364 13.215l6.207.001 6.208-.002c7.366 0 13.363-5.926 13.363-13.214v-12.71c0-7.284-5.996-13.21-13.363-13.21zm7.492 25.92c0 4.049-3.36 7.343-7.494 7.343l-6.206.001-6.206-.001c-4.133 0-7.493-3.294-7.493-7.343v-12.71c0-1.264.328-2.455.905-3.495a7.45 7.45 0 0 1 2.289-2.514 7.557 7.557 0 0 1 4.297-1.33h12.416c4.131 0 7.492 3.292 7.492 7.339v12.71z"></path><path d="M19.51 27.626a8.223 8.223 0 1 0 0-16.446 8.223 8.223 0 0 0 0 16.446zm100.651 0a8.223 8.223 0 1 0 0-16.446 8.223 8.223 0 0 0 0 16.446zM19.51 128.277a8.223 8.223 0 1 0 0-16.446 8.223 8.223 0 0 0 0 16.446z"></path></svg>