<?xml version="1.0" encoding="utf-8"?>
<!-- Generator: Adobe Illustrator 22.1.0, SVG Export Plug-In . SVG Version: 6.00 Build 0)  -->
<svg version="1.1" id="New_One" xmlns="http://www.w3.org/2000/svg" xmlns:xlink="http://www.w3.org/1999/xlink" x="0px" y="0px"
	 viewBox="0 0 477.2 106.6" style="enable-background:new 0 0 477.2 106.6;" xml:space="preserve">
<style type="text/css">
	.st0{fill:none;}
	.st1{fill:#F7BC60;}
	.st2{fill:#FFFFFF;}
</style>
<pattern  x="-55.8" y="412.1" width="69" height="69" patternUnits="userSpaceOnUse" id="Polka_Dot_Pattern" viewBox="2.1 -70.9 69 69" style="overflow:visible;">
	<g>
		<rect x="2.1" y="-70.9" class="st0" width="69" height="69"/>
		<rect x="2.1" y="-70.9" class="st1" width="69" height="69"/>
		<g>
			<path class="st2" d="M61.8-71.7c0,0.1,0,0.1,0,0.2c-0.1,0.1-0.1,0.1-0.2,0.1c-0.1,0.1-0.1,0.3-0.1,0.4c-0.2,0.1,0,0.2,0,0.3
				c0,0,0,0.1,0,0.2c0,0.1,0,0.3,0.1,0.4c0.1,0.2,0.3,0.4,0.4,0.5c0.2,0.1,0.4,0.6,0.6,0.6c0.2,0,0.4-0.1,0.5-0.1
				c0.2,0,0.4,0,0.6-0.1c0.2-0.1,0.1-0.3,0.3-0.5c0.1-0.1,0.3,0,0.4-0.1c0.2-0.1,0.3-0.3,0.4-0.5c0-0.1,0-0.1,0-0.2
				c0-0.1,0.1-0.2,0.1-0.3c0-0.1-0.1-0.1-0.1-0.2c0-0.1,0-0.2,0-0.3c0-0.2,0-0.4-0.1-0.5c-0.4-0.7-1.2-0.9-2-0.8
				c-0.2,0-0.3,0.1-0.4,0.2c-0.2,0.1-0.1,0.2-0.3,0.2c-0.1,0-0.2,0.1-0.2,0.2C61.8-71.7,61.8-71.7,61.8-71.7
				C61.8-71.6,61.8-71.6,61.8-71.7"/>
			<path class="st2" d="M54.1-71.7c0,0.1,0,0.1,0,0.2c-0.1,0.1-0.1,0.1-0.2,0.1c-0.1,0.1-0.1,0.3-0.1,0.4c-0.2,0.1,0,0.2,0,0.3
				c0,0,0,0.1,0,0.2c0,0.1,0,0.3,0.1,0.4c0.1,0.2,0.3,0.4,0.4,0.5c0.2,0.1,0.4,0.6,0.6,0.6c0.2,0,0.4-0.1,0.5-0.1
				c0.2,0,0.4,0,0.6-0.1c0.2-0.1,0.1-0.3,0.3-0.5c0.1-0.1,0.3,0,0.4-0.1c0.2-0.1,0.3-0.3,0.4-0.5c0-0.1,0-0.1,0-0.2
				c0-0.1,0.1-0.2,0.1-0.3c0-0.1-0.1-0.1-0.1-0.2c0-0.1,0-0.2,0-0.3c0-0.2,0-0.4-0.1-0.5c-0.4-0.7-1.2-0.9-2-0.8
				c-0.2,0-0.3,0.1-0.4,0.2c-0.2,0.1-0.1,0.2-0.3,0.2c-0.1,0-0.2,0.1-0.2,0.2C54.1-71.7,54.1-71.7,54.1-71.7
				C54.1-71.6,54.1-71.6,54.1-71.7"/>
			<path class="st2" d="M46.4-71.7c0,0.1,0,0.1,0,0.2c-0.1,0.1-0.1,0.1-0.2,0.1c-0.1,0.1-0.1,0.3-0.1,0.4c-0.2,0.1,0,0.2,0,0.3
				c0,0,0,0.1,0,0.2c0,0.1,0,0.3,0.1,0.4c0.1,0.2,0.3,0.4,0.4,0.5c0.2,0.1,0.4,0.6,0.6,0.6c0.2,0,0.4-0.1,0.5-0.1
				c0.2,0,0.4,0,0.6-0.1c0.2-0.1,0.1-0.3,0.3-0.5c0.1-0.1,0.3,0,0.4-0.1c0.2-0.1,0.3-0.3,0.4-0.5c0-0.1,0-0.1,0-0.2
				c0-0.1,0.1-0.2,0.1-0.3c0-0.1-0.1-0.1-0.1-0.2c0-0.1,0-0.2,0-0.3c0-0.2,0-0.4-0.1-0.5c-0.4-0.7-1.2-0.9-2-0.8
				c-0.2,0-0.3,0.1-0.4,0.2c-0.2,0.1-0.1,0.2-0.3,0.2c-0.1,0-0.2,0.1-0.2,0.2C46.4-71.7,46.4-71.7,46.4-71.7
				C46.4-71.6,46.4-71.6,46.4-71.7"/>
			<path class="st2" d="M38.8-71.7c0,0.1,0,0.1,0,0.2c-0.1,0.1-0.1,0.1-0.2,0.1c-0.1,0.1-0.1,0.3-0.1,0.4c-0.2,0.1,0,0.2,0,0.3
				c0,0,0,0.1,0,0.2c0,0.1,0,0.3,0.1,0.4c0.1,0.2,0.3,0.4,0.4,0.5c0.2,0.1,0.4,0.6,0.6,0.6c0.2,0,0.4-0.1,0.5-0.1
				c0.2,0,0.4,0,0.6-0.1c0.2-0.1,0.1-0.3,0.3-0.5c0.1-0.1,0.3,0,0.4-0.1c0.2-0.1,0.3-0.3,0.4-0.5c0-0.1,0-0.1,0-0.2
				c0-0.1,0.1-0.2,0.1-0.3c0-0.1-0.1-0.1-0.1-0.2c0-0.1,0-0.2,0-0.3c0-0.2,0-0.4-0.1-0.5c-0.4-0.7-1.2-0.9-2-0.8
				c-0.2,0-0.3,0.1-0.4,0.2c-0.2,0.1-0.1,0.2-0.3,0.2c-0.1,0-0.2,0.1-0.2,0.2C38.8-71.7,38.8-71.7,38.8-71.7
				C38.8-71.6,38.8-71.6,38.8-71.7"/>
			<path class="st2" d="M31.1-71.7c0,0.1,0,0.1,0,0.2c-0.1,0.1-0.1,0.1-0.2,0.1c-0.1,0.1-0.1,0.3-0.1,0.4c-0.2,0.1,0,0.2,0,0.3
				c0,0,0,0.1,0,0.2c0,0.1,0,0.3,0.1,0.4c0.1,0.2,0.3,0.4,0.4,0.5c0.2,0.1,0.4,0.6,0.6,0.6c0.2,0,0.4-0.1,0.5-0.1
				c0.2,0,0.4,0,0.6-0.1c0.2-0.1,0.1-0.3,0.3-0.5c0.1-0.1,0.3,0,0.4-0.1c0.2-0.1,0.3-0.3,0.4-0.5c0-0.1,0-0.1,0-0.2
				c0-0.1,0.1-0.2,0.1-0.3c0-0.1-0.1-0.1-0.1-0.2c0-0.1,0-0.2,0-0.3c0-0.2,0-0.4-0.1-0.5c-0.4-0.7-1.2-0.9-2-0.8
				c-0.2,0-0.3,0.1-0.4,0.2c-0.2,0.1-0.1,0.2-0.3,0.2c-0.1,0-0.2,0.1-0.2,0.2C31.1-71.7,31.1-71.7,31.1-71.7
				C31.1-71.6,31.1-71.6,31.1-71.7"/>
			<path class="st2" d="M23.4-71.7c0,0.1,0,0.1,0,0.2c-0.1,0.1-0.1,0.1-0.2,0.1c-0.1,0.1-0.1,0.3-0.1,0.4c-0.2,0.1,0,0.2,0,0.3
				c0,0,0,0.1,0,0.2c0,0.1,0,0.3,0.1,0.4c0.1,0.2,0.3,0.4,0.4,0.5c0.2,0.1,0.4,0.6,0.6,0.6c0.2,0,0.4-0.1,0.5-0.1
				c0.2,0,0.4,0,0.6-0.1c0.2-0.1,0.1-0.3,0.3-0.5c0.1-0.1,0.3,0,0.4-0.1c0.2-0.1,0.3-0.3,0.4-0.5c0-0.1,0-0.1,0-0.2
				c0-0.1,0.1-0.2,0.1-0.3c0-0.1-0.1-0.1-0.1-0.2c0-0.1,0-0.2,0-0.3c0-0.2,0-0.4-0.1-0.5c-0.4-0.7-1.2-0.9-2-0.8
				c-0.2,0-0.3,0.1-0.4,0.2c-0.2,0.1-0.1,0.2-0.3,0.2c-0.1,0-0.2,0.1-0.2,0.2C23.4-71.7,23.4-71.7,23.4-71.7
				C23.4-71.6,23.4-71.6,23.4-71.7"/>
			<path class="st2" d="M15.8-71.7c0,0.1,0,0.1,0,0.2c-0.1,0.1-0.1,0.1-0.2,0.1c-0.1,0.1-0.1,0.3-0.1,0.4c-0.2,0.1,0,0.2,0,0.3
				c0,0,0,0.1,0,0.2c0,0.1,0,0.3,0.1,0.4c0.1,0.2,0.3,0.4,0.4,0.5c0.2,0.1,0.4,0.6,0.6,0.6c0.2,0,0.4-0.1,0.5-0.1
				c0.2,0,0.4,0,0.6-0.1c0.2-0.1,0.1-0.3,0.3-0.5c0.1-0.1,0.3,0,0.4-0.1c0.2-0.1,0.3-0.3,0.4-0.5c0-0.1,0-0.1,0-0.2
				c0-0.1,0.1-0.2,0.1-0.3c0-0.1-0.1-0.1-0.1-0.2c0-0.1,0-0.2,0-0.3c0-0.2,0-0.4-0.1-0.5c-0.4-0.7-1.2-0.9-2-0.8
				c-0.2,0-0.3,0.1-0.4,0.2c-0.2,0.1-0.1,0.2-0.3,0.2c-0.1,0-0.2,0.1-0.2,0.2C15.8-71.7,15.8-71.7,15.8-71.7
				C15.8-71.6,15.8-71.6,15.8-71.7"/>
			<path class="st2" d="M8.1-71.7c0,0.1,0,0.1,0,0.2C8-71.4,8-71.4,7.9-71.3c-0.1,0.1-0.1,0.3-0.1,0.4c-0.2,0.1,0,0.2,0,0.3
				c0,0,0,0.1,0,0.2c0,0.1,0,0.3,0.1,0.4c0.1,0.2,0.3,0.4,0.4,0.5c0.2,0.1,0.4,0.6,0.6,0.6c0.2,0,0.4-0.1,0.5-0.1
				c0.2,0,0.4,0,0.6-0.1c0.2-0.1,0.1-0.3,0.3-0.5c0.1-0.1,0.3,0,0.4-0.1c0.2-0.1,0.3-0.3,0.4-0.5c0-0.1,0-0.1,0-0.2
				c0-0.1,0.1-0.2,0.1-0.3c0-0.1-0.1-0.1-0.1-0.2c0-0.1,0-0.2,0-0.3c0-0.2,0-0.4-0.1-0.5c-0.4-0.7-1.2-0.9-2-0.8
				c-0.2,0-0.3,0.1-0.4,0.2c-0.2,0.1-0.1,0.2-0.3,0.2c-0.1,0-0.2,0.1-0.2,0.2C8.1-71.7,8.1-71.7,8.1-71.7
				C8.1-71.6,8.1-71.6,8.1-71.7"/>
			<path class="st2" d="M0.4-71.7c0,0.1,0,0.1,0,0.2c-0.1,0.1-0.1,0.1-0.2,0.1c-0.1,0.1-0.1,0.3-0.1,0.4c-0.2,0.1,0,0.2,0,0.3
				c0,0,0,0.1,0,0.2c0,0.1,0,0.3,0.1,0.4c0.1,0.2,0.3,0.4,0.4,0.5C0.8-69.4,1-69,1.2-68.9c0.2,0,0.4-0.1,0.5-0.1
				c0.2,0,0.4,0,0.6-0.1c0.2-0.1,0.1-0.3,0.3-0.5c0.1-0.1,0.3,0,0.4-0.1c0.2-0.1,0.3-0.3,0.4-0.5c0-0.1,0-0.1,0-0.2
				c0-0.1,0.1-0.2,0.1-0.3c0-0.1-0.1-0.1-0.1-0.2c0-0.1,0-0.2,0-0.3c0-0.2,0-0.4-0.1-0.5c-0.4-0.7-1.2-0.9-2-0.8
				c-0.2,0-0.3,0.1-0.4,0.2c-0.2,0.1-0.1,0.2-0.3,0.2c-0.1,0-0.2,0.1-0.2,0.2C0.4-71.7,0.4-71.7,0.4-71.7
				C0.4-71.6,0.4-71.6,0.4-71.7"/>
		</g>
		<g>
			<path class="st2" d="M69.4-71.7c0,0.1,0,0.1,0,0.2c-0.1,0.1-0.1,0.1-0.2,0.1c-0.1,0.1-0.1,0.3-0.1,0.4c-0.2,0.1,0,0.2,0,0.3
				c0,0,0,0.1,0,0.2c0,0.1,0,0.3,0.1,0.4c0.1,0.2,0.3,0.4,0.4,0.5c0.2,0.1,0.4,0.6,0.6,0.6c0.2,0,0.4-0.1,0.5-0.1
				c0.2,0,0.4,0,0.6-0.1c0.2-0.1,0.1-0.3,0.3-0.5c0.1-0.1,0.3,0,0.4-0.1c0.2-0.1,0.3-0.3,0.4-0.5c0-0.1,0-0.1,0-0.2
				c0-0.1,0.1-0.2,0.1-0.3c0-0.1-0.1-0.1-0.1-0.2c0-0.1,0-0.2,0-0.3c0-0.2,0-0.4-0.1-0.5c-0.4-0.7-1.2-0.9-2-0.8
				c-0.2,0-0.3,0.1-0.4,0.2c-0.2,0.1-0.1,0.2-0.3,0.2c-0.1,0-0.2,0.1-0.2,0.2C69.4-71.7,69.4-71.7,69.4-71.7
				C69.4-71.6,69.4-71.6,69.4-71.7"/>
		</g>
		<path class="st2" d="M0.5-71.7c0,0.1,0,0.1,0,0.2c-0.1,0.1-0.1,0.1-0.2,0.1c-0.1,0.1-0.1,0.3-0.1,0.4c-0.2,0.1,0,0.2,0,0.3
			c0,0,0,0.1,0,0.2c0,0.1,0,0.3,0.1,0.4c0.1,0.2,0.3,0.4,0.4,0.5C0.9-69.4,1-69,1.3-68.9c0.2,0,0.4-0.1,0.5-0.1c0.2,0,0.4,0,0.6-0.1
			c0.2-0.1,0.1-0.3,0.3-0.5c0.1-0.1,0.3,0,0.4-0.1c0.2-0.1,0.3-0.3,0.4-0.5c0-0.1,0-0.1,0-0.2c0-0.1,0.1-0.2,0.1-0.3
			c0-0.1-0.1-0.1-0.1-0.2c0-0.1,0-0.2,0-0.3c0-0.2,0-0.4-0.1-0.5c-0.4-0.7-1.2-0.9-2-0.8c-0.2,0-0.3,0.1-0.4,0.2
			c-0.2,0.1-0.1,0.2-0.3,0.2c-0.1,0-0.2,0.1-0.2,0.2C0.5-71.7,0.5-71.7,0.5-71.7C0.5-71.6,0.5-71.6,0.5-71.7"/>
		<g>
			<g>
				<path class="st2" d="M69.4-64c0,0.1,0,0.1,0,0.2c-0.1,0.1-0.1,0.1-0.2,0.1c-0.1,0.1-0.1,0.3-0.1,0.4c-0.2,0.1,0,0.2,0,0.3
					c0,0,0,0.1,0,0.2c0,0.1,0,0.3,0.1,0.4c0.1,0.2,0.3,0.4,0.4,0.5c0.2,0.1,0.4,0.6,0.6,0.6c0.2,0,0.4-0.1,0.5-0.1
					c0.2,0,0.4,0,0.6-0.1c0.2-0.1,0.1-0.3,0.3-0.5c0.1-0.1,0.3,0,0.4-0.1c0.2-0.1,0.3-0.3,0.4-0.5c0-0.1,0-0.1,0-0.2
					c0-0.1,0.1-0.2,0.1-0.3c0-0.1-0.1-0.1-0.1-0.2c0-0.1,0-0.2,0-0.3c0-0.2,0-0.4-0.1-0.5c-0.4-0.7-1.2-0.9-2-0.8
					c-0.2,0-0.3,0.1-0.4,0.2c-0.2,0.1-0.1,0.2-0.3,0.2c-0.1,0-0.2,0.1-0.2,0.2C69.4-64,69.4-64.1,69.4-64C69.4-64,69.4-64,69.4-64"
					/>
				<path class="st2" d="M61.8-64c0,0.1,0,0.1,0,0.2c-0.1,0.1-0.1,0.1-0.2,0.1c-0.1,0.1-0.1,0.3-0.1,0.4c-0.2,0.1,0,0.2,0,0.3
					c0,0,0,0.1,0,0.2c0,0.1,0,0.3,0.1,0.4c0.1,0.2,0.3,0.4,0.4,0.5c0.2,0.1,0.4,0.6,0.6,0.6c0.2,0,0.4-0.1,0.5-0.1
					c0.2,0,0.4,0,0.6-0.1c0.2-0.1,0.1-0.3,0.3-0.5c0.1-0.1,0.3,0,0.4-0.1c0.2-0.1,0.3-0.3,0.4-0.5c0-0.1,0-0.1,0-0.2
					c0-0.1,0.1-0.2,0.1-0.3c0-0.1-0.1-0.1-0.1-0.2c0-0.1,0-0.2,0-0.3c0-0.2,0-0.4-0.1-0.5c-0.4-0.7-1.2-0.9-2-0.8
					c-0.2,0-0.3,0.1-0.4,0.2c-0.2,0.1-0.1,0.2-0.3,0.2c-0.1,0-0.2,0.1-0.2,0.2C61.8-64,61.8-64.1,61.8-64C61.8-64,61.8-64,61.8-64"
					/>
				<path class="st2" d="M54.1-64c0,0.1,0,0.1,0,0.2c-0.1,0.1-0.1,0.1-0.2,0.1c-0.1,0.1-0.1,0.3-0.1,0.4c-0.2,0.1,0,0.2,0,0.3
					c0,0,0,0.1,0,0.2c0,0.1,0,0.3,0.1,0.4c0.1,0.2,0.3,0.4,0.4,0.5c0.2,0.1,0.4,0.6,0.6,0.6c0.2,0,0.4-0.1,0.5-0.1
					c0.2,0,0.4,0,0.6-0.1c0.2-0.1,0.1-0.3,0.3-0.5c0.1-0.1,0.3,0,0.4-0.1c0.2-0.1,0.3-0.3,0.4-0.5c0-0.1,0-0.1,0-0.2
					c0-0.1,0.1-0.2,0.1-0.3c0-0.1-0.1-0.1-0.1-0.2c0-0.1,0-0.2,0-0.3c0-0.2,0-0.4-0.1-0.5c-0.4-0.7-1.2-0.9-2-0.8
					c-0.2,0-0.3,0.1-0.4,0.2c-0.2,0.1-0.1,0.2-0.3,0.2c-0.1,0-0.2,0.1-0.2,0.2C54.1-64,54.1-64.1,54.1-64C54.1-64,54.1-64,54.1-64"
					/>
				<path class="st2" d="M46.5-64c0,0.1,0,0.1,0,0.2c-0.1,0.1-0.1,0.1-0.2,0.1c-0.1,0.1-0.1,0.3-0.1,0.4c-0.2,0.1,0,0.2,0,0.3
					c0,0,0,0.1,0,0.2c0,0.1,0,0.3,0.1,0.4c0.1,0.2,0.3,0.4,0.4,0.5c0.2,0.1,0.4,0.6,0.6,0.6c0.2,0,0.4-0.1,0.5-0.1
					c0.2,0,0.4,0,0.6-0.1c0.2-0.1,0.1-0.3,0.3-0.5c0.1-0.1,0.3,0,0.4-0.1c0.2-0.1,0.3-0.3,0.4-0.5c0-0.1,0-0.1,0-0.2
					c0-0.1,0.1-0.2,0.1-0.3c0-0.1-0.1-0.1-0.1-0.2c0-0.1,0-0.2,0-0.3c0-0.2,0-0.4-0.1-0.5c-0.4-0.7-1.2-0.9-2-0.8
					c-0.2,0-0.3,0.1-0.4,0.2c-0.2,0.1-0.1,0.2-0.3,0.2c-0.1,0-0.2,0.1-0.2,0.2C46.5-64,46.5-64.1,46.5-64C46.5-64,46.5-64,46.5-64"
					/>
				<path class="st2" d="M38.8-64c0,0.1,0,0.1,0,0.2c-0.1,0.1-0.1,0.1-0.2,0.1c-0.1,0.1-0.1,0.3-0.1,0.4c-0.2,0.1,0,0.2,0,0.3
					c0,0,0,0.1,0,0.2c0,0.1,0,0.3,0.1,0.4c0.1,0.2,0.3,0.4,0.4,0.5c0.2,0.1,0.4,0.6,0.6,0.6c0.2,0,0.4-0.1,0.5-0.1
					c0.2,0,0.4,0,0.6-0.1c0.2-0.1,0.1-0.3,0.3-0.5c0.1-0.1,0.3,0,0.4-0.1c0.2-0.1,0.3-0.3,0.4-0.5c0-0.1,0-0.1,0-0.2
					c0-0.1,0.1-0.2,0.1-0.3c0-0.1-0.1-0.1-0.1-0.2c0-0.1,0-0.2,0-0.3c0-0.2,0-0.4-0.1-0.5c-0.4-0.7-1.2-0.9-2-0.8
					c-0.2,0-0.3,0.1-0.4,0.2c-0.2,0.1-0.1,0.2-0.3,0.2c-0.1,0-0.2,0.1-0.2,0.2C38.8-64,38.8-64.1,38.8-64C38.8-64,38.8-64,38.8-64"
					/>
				<path class="st2" d="M31.1-64c0,0.1,0,0.1,0,0.2c-0.1,0.1-0.1,0.1-0.2,0.1c-0.1,0.1-0.1,0.3-0.1,0.4c-0.2,0.1,0,0.2,0,0.3
					c0,0,0,0.1,0,0.2c0,0.1,0,0.3,0.1,0.4c0.1,0.2,0.3,0.4,0.4,0.5c0.2,0.1,0.4,0.6,0.6,0.6c0.2,0,0.4-0.1,0.5-0.1
					c0.2,0,0.4,0,0.6-0.1c0.2-0.1,0.1-0.3,0.3-0.5c0.1-0.1,0.3,0,0.4-0.1c0.2-0.1,0.3-0.3,0.4-0.5c0-0.1,0-0.1,0-0.2
					c0-0.1,0.1-0.2,0.1-0.3c0-0.1-0.1-0.1-0.1-0.2c0-0.1,0-0.2,0-0.3c0-0.2,0-0.4-0.1-0.5c-0.4-0.7-1.2-0.9-2-0.8
					c-0.2,0-0.3,0.1-0.4,0.2c-0.2,0.1-0.1,0.2-0.3,0.2c-0.1,0-0.2,0.1-0.2,0.2C31.1-64,31.1-64.1,31.1-64C31.1-64,31.1-64,31.1-64"
					/>
				<path class="st2" d="M23.5-64c0,0.1,0,0.1,0,0.2c-0.1,0.1-0.1,0.1-0.2,0.1c-0.1,0.1-0.1,0.3-0.1,0.4c-0.2,0.1,0,0.2,0,0.3
					c0,0,0,0.1,0,0.2c0,0.1,0,0.3,0.1,0.4c0.1,0.2,0.3,0.4,0.4,0.5c0.2,0.1,0.4,0.6,0.6,0.6c0.2,0,0.4-0.1,0.5-0.1
					c0.2,0,0.4,0,0.6-0.1c0.2-0.1,0.1-0.3,0.3-0.5c0.1-0.1,0.3,0,0.4-0.1c0.2-0.1,0.3-0.3,0.4-0.5c0-0.1,0-0.1,0-0.2
					c0-0.1,0.1-0.2,0.1-0.3c0-0.1-0.1-0.1-0.1-0.2c0-0.1,0-0.2,0-0.3c0-0.2,0-0.4-0.1-0.5c-0.4-0.7-1.2-0.9-2-0.8
					c-0.2,0-0.3,0.1-0.4,0.2c-0.2,0.1-0.1,0.2-0.3,0.2c-0.1,0-0.2,0.1-0.2,0.2C23.5-64,23.5-64.1,23.5-64C23.5-64,23.5-64,23.5-64"
					/>
				<path class="st2" d="M15.8-64c0,0.1,0,0.1,0,0.2c-0.1,0.1-0.1,0.1-0.2,0.1c-0.1,0.1-0.1,0.3-0.1,0.4c-0.2,0.1,0,0.2,0,0.3
					c0,0,0,0.1,0,0.2c0,0.1,0,0.3,0.1,0.4c0.1,0.2,0.3,0.4,0.4,0.5c0.2,0.1,0.4,0.6,0.6,0.6c0.2,0,0.4-0.1,0.5-0.1
					c0.2,0,0.4,0,0.6-0.1c0.2-0.1,0.1-0.3,0.3-0.5c0.1-0.1,0.3,0,0.4-0.1c0.2-0.1,0.3-0.3,0.4-0.5c0-0.1,0-0.1,0-0.2
					c0-0.1,0.1-0.2,0.1-0.3c0-0.1-0.1-0.1-0.1-0.2c0-0.1,0-0.2,0-0.3c0-0.2,0-0.4-0.1-0.5c-0.4-0.7-1.2-0.9-2-0.8
					c-0.2,0-0.3,0.1-0.4,0.2c-0.2,0.1-0.1,0.2-0.3,0.2c-0.1,0-0.2,0.1-0.2,0.2C15.8-64,15.8-64.1,15.8-64C15.8-64,15.8-64,15.8-64"
					/>
				<path class="st2" d="M8.2-64c0,0.1,0,0.1,0,0.2C8.1-63.7,8-63.7,8-63.7c-0.1,0.1-0.1,0.3-0.1,0.4c-0.2,0.1,0,0.2,0,0.3
					c0,0,0,0.1,0,0.2c0,0.1,0,0.3,0.1,0.4C8-62.2,8.2-62,8.3-61.9c0.2,0.1,0.4,0.6,0.6,0.6c0.2,0,0.4-0.1,0.5-0.1
					c0.2,0,0.4,0,0.6-0.1c0.2-0.1,0.1-0.3,0.3-0.5c0.1-0.1,0.3,0,0.4-0.1c0.2-0.1,0.3-0.3,0.4-0.5c0-0.1,0-0.1,0-0.2
					c0-0.1,0.1-0.2,0.1-0.3c0-0.1-0.1-0.1-0.1-0.2c0-0.1,0-0.2,0-0.3c0-0.2,0-0.4-0.1-0.5c-0.4-0.7-1.2-0.9-2-0.8
					c-0.2,0-0.3,0.1-0.4,0.2c-0.2,0.1-0.1,0.2-0.3,0.2c-0.1,0-0.2,0.1-0.2,0.2C8.2-64,8.2-64.1,8.2-64C8.1-64,8.1-64,8.2-64"/>
				<path class="st2" d="M0.5-64c0,0.1,0,0.1,0,0.2c-0.1,0.1-0.1,0.1-0.2,0.1c-0.1,0.1-0.1,0.3-0.1,0.4c-0.2,0.1,0,0.2,0,0.3
					c0,0,0,0.1,0,0.2c0,0.1,0,0.3,0.1,0.4c0.1,0.2,0.3,0.4,0.4,0.5c0.2,0.1,0.4,0.6,0.6,0.6c0.2,0,0.4-0.1,0.5-0.1
					c0.2,0,0.4,0,0.6-0.1c0.2-0.1,0.1-0.3,0.3-0.5C2.8-62,3-61.9,3.1-62c0.2-0.1,0.3-0.3,0.4-0.5c0-0.1,0-0.1,0-0.2
					c0-0.1,0.1-0.2,0.1-0.3c0-0.1-0.1-0.1-0.1-0.2c0-0.1,0-0.2,0-0.3c0-0.2,0-0.4-0.1-0.5c-0.4-0.7-1.2-0.9-2-0.8
					c-0.2,0-0.3,0.1-0.4,0.2c-0.2,0.1-0.1,0.2-0.3,0.2c-0.1,0-0.2,0.1-0.2,0.2C0.5-64,0.5-64.1,0.5-64C0.5-64,0.5-64,0.5-64"/>
			</g>
			<g>
				<path class="st2" d="M69.4-56.3c0,0.1,0,0.1,0,0.2c-0.1,0.1-0.1,0.1-0.2,0.1c-0.1,0.1-0.1,0.3-0.1,0.4c-0.2,0.1,0,0.2,0,0.3
					c0,0,0,0.1,0,0.2c0,0.1,0,0.3,0.1,0.4c0.1,0.2,0.3,0.4,0.4,0.5c0.2,0.1,0.4,0.6,0.6,0.6c0.2,0,0.4-0.1,0.5-0.1
					c0.2,0,0.4,0,0.6-0.1c0.2-0.1,0.1-0.3,0.3-0.5c0.1-0.1,0.3,0,0.4-0.1c0.2-0.1,0.3-0.3,0.4-0.5c0-0.1,0-0.1,0-0.2
					c0-0.1,0.1-0.2,0.1-0.3c0-0.1-0.1-0.1-0.1-0.2c0-0.1,0-0.2,0-0.3c0-0.2,0-0.4-0.1-0.5c-0.4-0.7-1.2-0.9-2-0.8
					c-0.2,0-0.3,0.1-0.4,0.2c-0.2,0.1-0.1,0.2-0.3,0.2c-0.1,0-0.2,0.1-0.2,0.2C69.4-56.4,69.4-56.4,69.4-56.3
					C69.4-56.3,69.4-56.3,69.4-56.3"/>
				<path class="st2" d="M61.8-56.3c0,0.1,0,0.1,0,0.2c-0.1,0.1-0.1,0.1-0.2,0.1c-0.1,0.1-0.1,0.3-0.1,0.4c-0.2,0.1,0,0.2,0,0.3
					c0,0,0,0.1,0,0.2c0,0.1,0,0.3,0.1,0.4c0.1,0.2,0.3,0.4,0.4,0.5c0.2,0.1,0.4,0.6,0.6,0.6c0.2,0,0.4-0.1,0.5-0.1
					c0.2,0,0.4,0,0.6-0.1c0.2-0.1,0.1-0.3,0.3-0.5c0.1-0.1,0.3,0,0.4-0.1c0.2-0.1,0.3-0.3,0.4-0.5c0-0.1,0-0.1,0-0.2
					c0-0.1,0.1-0.2,0.1-0.3c0-0.1-0.1-0.1-0.1-0.2c0-0.1,0-0.2,0-0.3c0-0.2,0-0.4-0.1-0.5c-0.4-0.7-1.2-0.9-2-0.8
					c-0.2,0-0.3,0.1-0.4,0.2c-0.2,0.1-0.1,0.2-0.3,0.2c-0.1,0-0.2,0.1-0.2,0.2C61.8-56.4,61.8-56.4,61.8-56.3
					C61.8-56.3,61.8-56.3,61.8-56.3"/>
				<path class="st2" d="M54.1-56.3c0,0.1,0,0.1,0,0.2C54-56.1,54-56.1,53.9-56c-0.1,0.1-0.1,0.3-0.1,0.4c-0.2,0.1,0,0.2,0,0.3
					c0,0,0,0.1,0,0.2c0,0.1,0,0.3,0.1,0.4c0.1,0.2,0.3,0.4,0.4,0.5c0.2,0.1,0.4,0.6,0.6,0.6c0.2,0,0.4-0.1,0.5-0.1
					c0.2,0,0.4,0,0.6-0.1c0.2-0.1,0.1-0.3,0.3-0.5c0.1-0.1,0.3,0,0.4-0.1c0.2-0.1,0.3-0.3,0.4-0.5c0-0.1,0-0.1,0-0.2
					c0-0.1,0.1-0.2,0.1-0.3c0-0.1-0.1-0.1-0.1-0.2c0-0.1,0-0.2,0-0.3c0-0.2,0-0.4-0.1-0.5c-0.4-0.7-1.2-0.9-2-0.8
					c-0.2,0-0.3,0.1-0.4,0.2c-0.2,0.1-0.1,0.2-0.3,0.2c-0.1,0-0.2,0.1-0.2,0.2C54.1-56.4,54.1-56.4,54.1-56.3
					C54.1-56.3,54.1-56.3,54.1-56.3"/>
				<path class="st2" d="M46.5-56.3c0,0.1,0,0.1,0,0.2c-0.1,0.1-0.1,0.1-0.2,0.1c-0.1,0.1-0.1,0.3-0.1,0.4c-0.2,0.1,0,0.2,0,0.3
					c0,0,0,0.1,0,0.2c0,0.1,0,0.3,0.1,0.4c0.1,0.2,0.3,0.4,0.4,0.5c0.2,0.1,0.4,0.6,0.6,0.6c0.2,0,0.4-0.1,0.5-0.1
					c0.2,0,0.4,0,0.6-0.1c0.2-0.1,0.1-0.3,0.3-0.5c0.1-0.1,0.3,0,0.4-0.1c0.2-0.1,0.3-0.3,0.4-0.5c0-0.1,0-0.1,0-0.2
					c0-0.1,0.1-0.2,0.1-0.3c0-0.1-0.1-0.1-0.1-0.2c0-0.1,0-0.2,0-0.3c0-0.2,0-0.4-0.1-0.5c-0.4-0.7-1.2-0.9-2-0.8
					c-0.2,0-0.3,0.1-0.4,0.2c-0.2,0.1-0.1,0.2-0.3,0.2c-0.1,0-0.2,0.1-0.2,0.2C46.5-56.4,46.5-56.4,46.5-56.3
					C46.5-56.3,46.5-56.3,46.5-56.3"/>
				<path class="st2" d="M38.8-56.3c0,0.1,0,0.1,0,0.2c-0.1,0.1-0.1,0.1-0.2,0.1c-0.1,0.1-0.1,0.3-0.1,0.4c-0.2,0.1,0,0.2,0,0.3
					c0,0,0,0.1,0,0.2c0,0.1,0,0.3,0.1,0.4c0.1,0.2,0.3,0.4,0.4,0.5c0.2,0.1,0.4,0.6,0.6,0.6c0.2,0,0.4-0.1,0.5-0.1
					c0.2,0,0.4,0,0.6-0.1c0.2-0.1,0.1-0.3,0.3-0.5c0.1-0.1,0.3,0,0.4-0.1c0.2-0.1,0.3-0.3,0.4-0.5c0-0.1,0-0.1,0-0.2
					c0-0.1,0.1-0.2,0.1-0.3c0-0.1-0.1-0.1-0.1-0.2c0-0.1,0-0.2,0-0.3c0-0.2,0-0.4-0.1-0.5c-0.4-0.7-1.2-0.9-2-0.8
					c-0.2,0-0.3,0.1-0.4,0.2c-0.2,0.1-0.1,0.2-0.3,0.2c-0.1,0-0.2,0.1-0.2,0.2C38.8-56.4,38.8-56.4,38.8-56.3
					C38.8-56.3,38.8-56.3,38.8-56.3"/>
				<path class="st2" d="M31.1-56.3c0,0.1,0,0.1,0,0.2c-0.1,0.1-0.1,0.1-0.2,0.1c-0.1,0.1-0.1,0.3-0.1,0.4c-0.2,0.1,0,0.2,0,0.3
					c0,0,0,0.1,0,0.2c0,0.1,0,0.3,0.1,0.4c0.1,0.2,0.3,0.4,0.4,0.5c0.2,0.1,0.4,0.6,0.6,0.6c0.2,0,0.4-0.1,0.5-0.1
					c0.2,0,0.4,0,0.6-0.1c0.2-0.1,0.1-0.3,0.3-0.5c0.1-0.1,0.3,0,0.4-0.1c0.2-0.1,0.3-0.3,0.4-0.5c0-0.1,0-0.1,0-0.2
					c0-0.1,0.1-0.2,0.1-0.3c0-0.1-0.1-0.1-0.1-0.2c0-0.1,0-0.2,0-0.3c0-0.2,0-0.4-0.1-0.5c-0.4-0.7-1.2-0.9-2-0.8
					c-0.2,0-0.3,0.1-0.4,0.2c-0.2,0.1-0.1,0.2-0.3,0.2c-0.1,0-0.2,0.1-0.2,0.2C31.1-56.4,31.1-56.4,31.1-56.3
					C31.1-56.3,31.1-56.3,31.1-56.3"/>
				<path class="st2" d="M23.5-56.3c0,0.1,0,0.1,0,0.2c-0.1,0.1-0.1,0.1-0.2,0.1c-0.1,0.1-0.1,0.3-0.1,0.4c-0.2,0.1,0,0.2,0,0.3
					c0,0,0,0.1,0,0.2c0,0.1,0,0.3,0.1,0.4c0.1,0.2,0.3,0.4,0.4,0.5c0.2,0.1,0.4,0.6,0.6,0.6c0.2,0,0.4-0.1,0.5-0.1
					c0.2,0,0.4,0,0.6-0.1c0.2-0.1,0.1-0.3,0.3-0.5c0.1-0.1,0.3,0,0.4-0.1c0.2-0.1,0.3-0.3,0.4-0.5c0-0.1,0-0.1,0-0.2
					c0-0.1,0.1-0.2,0.1-0.3c0-0.1-0.1-0.1-0.1-0.2c0-0.1,0-0.2,0-0.3c0-0.2,0-0.4-0.1-0.5c-0.4-0.7-1.2-0.9-2-0.8
					c-0.2,0-0.3,0.1-0.4,0.2c-0.2,0.1-0.1,0.2-0.3,0.2c-0.1,0-0.2,0.1-0.2,0.2C23.5-56.4,23.5-56.4,23.5-56.3
					C23.5-56.3,23.5-56.3,23.5-56.3"/>
				<path class="st2" d="M15.8-56.3c0,0.1,0,0.1,0,0.2c-0.1,0.1-0.1,0.1-0.2,0.1c-0.1,0.1-0.1,0.3-0.1,0.4c-0.2,0.1,0,0.2,0,0.3
					c0,0,0,0.1,0,0.2c0,0.1,0,0.3,0.1,0.4c0.1,0.2,0.3,0.4,0.4,0.5c0.2,0.1,0.4,0.6,0.6,0.6c0.2,0,0.4-0.1,0.5-0.1
					c0.2,0,0.4,0,0.6-0.1c0.2-0.1,0.1-0.3,0.3-0.5c0.1-0.1,0.3,0,0.4-0.1c0.2-0.1,0.3-0.3,0.4-0.5c0-0.1,0-0.1,0-0.2
					c0-0.1,0.1-0.2,0.1-0.3c0-0.1-0.1-0.1-0.1-0.2c0-0.1,0-0.2,0-0.3c0-0.2,0-0.4-0.1-0.5c-0.4-0.7-1.2-0.9-2-0.8
					c-0.2,0-0.3,0.1-0.4,0.2c-0.2,0.1-0.1,0.2-0.3,0.2c-0.1,0-0.2,0.1-0.2,0.2C15.8-56.4,15.8-56.4,15.8-56.3
					C15.8-56.3,15.8-56.3,15.8-56.3"/>
				<path class="st2" d="M8.2-56.3c0,0.1,0,0.1,0,0.2C8.1-56.1,8-56.1,8-56c-0.1,0.1-0.1,0.3-0.1,0.4c-0.2,0.1,0,0.2,0,0.3
					c0,0,0,0.1,0,0.2c0,0.1,0,0.3,0.1,0.4c0.1,0.2,0.3,0.4,0.4,0.5c0.2,0.1,0.4,0.6,0.6,0.6c0.2,0,0.4-0.1,0.5-0.1
					c0.2,0,0.4,0,0.6-0.1c0.2-0.1,0.1-0.3,0.3-0.5c0.1-0.1,0.3,0,0.4-0.1c0.2-0.1,0.3-0.3,0.4-0.5c0-0.1,0-0.1,0-0.2
					c0-0.1,0.1-0.2,0.1-0.3c0-0.1-0.1-0.1-0.1-0.2c0-0.1,0-0.2,0-0.3c0-0.2,0-0.4-0.1-0.5c-0.4-0.7-1.2-0.9-2-0.8
					c-0.2,0-0.3,0.1-0.4,0.2c-0.2,0.1-0.1,0.2-0.3,0.2c-0.1,0-0.2,0.1-0.2,0.2C8.2-56.4,8.2-56.4,8.2-56.3
					C8.1-56.3,8.1-56.3,8.2-56.3"/>
				<path class="st2" d="M0.5-56.3c0,0.1,0,0.1,0,0.2c-0.1,0.1-0.1,0.1-0.2,0.1c-0.1,0.1-0.1,0.3-0.1,0.4c-0.2,0.1,0,0.2,0,0.3
					c0,0,0,0.1,0,0.2c0,0.1,0,0.3,0.1,0.4c0.1,0.2,0.3,0.4,0.4,0.5c0.2,0.1,0.4,0.6,0.6,0.6c0.2,0,0.4-0.1,0.5-0.1
					c0.2,0,0.4,0,0.6-0.1c0.2-0.1,0.1-0.3,0.3-0.5c0.1-0.1,0.3,0,0.4-0.1c0.2-0.1,0.3-0.3,0.4-0.5c0-0.1,0-0.1,0-0.2
					c0-0.1,0.1-0.2,0.1-0.3c0-0.1-0.1-0.1-0.1-0.2c0-0.1,0-0.2,0-0.3c0-0.2,0-0.4-0.1-0.5c-0.4-0.7-1.2-0.9-2-0.8
					c-0.2,0-0.3,0.1-0.4,0.2c-0.2,0.1-0.1,0.2-0.3,0.2c-0.1,0-0.2,0.1-0.2,0.2C0.5-56.4,0.5-56.4,0.5-56.3
					C0.5-56.3,0.5-56.3,0.5-56.3"/>
			</g>
			<g>
				<path class="st2" d="M69.4-48.7c0,0.1,0,0.1,0,0.2c-0.1,0.1-0.1,0.1-0.2,0.1c-0.1,0.1-0.1,0.3-0.1,0.4c-0.2,0.1,0,0.2,0,0.3
					c0,0,0,0.1,0,0.2c0,0.1,0,0.3,0.1,0.4c0.1,0.2,0.3,0.4,0.4,0.5c0.2,0.1,0.4,0.6,0.6,0.6c0.2,0,0.4-0.1,0.5-0.1
					c0.2,0,0.4,0,0.6-0.1c0.2-0.1,0.1-0.3,0.3-0.5c0.1-0.1,0.3,0,0.4-0.1c0.2-0.1,0.3-0.3,0.4-0.5c0-0.1,0-0.1,0-0.2
					c0-0.1,0.1-0.2,0.1-0.3c0-0.1-0.1-0.1-0.1-0.2c0-0.1,0-0.2,0-0.3c0-0.2,0-0.4-0.1-0.5c-0.4-0.7-1.2-0.9-2-0.8
					c-0.2,0-0.3,0.1-0.4,0.2c-0.2,0.1-0.1,0.2-0.3,0.2c-0.1,0-0.2,0.1-0.2,0.2C69.4-48.7,69.4-48.8,69.4-48.7
					C69.4-48.7,69.4-48.7,69.4-48.7"/>
				<path class="st2" d="M61.8-48.7c0,0.1,0,0.1,0,0.2c-0.1,0.1-0.1,0.1-0.2,0.1c-0.1,0.1-0.1,0.3-0.1,0.4c-0.2,0.1,0,0.2,0,0.3
					c0,0,0,0.1,0,0.2c0,0.1,0,0.3,0.1,0.4c0.1,0.2,0.3,0.4,0.4,0.5c0.2,0.1,0.4,0.6,0.6,0.6c0.2,0,0.4-0.1,0.5-0.1
					c0.2,0,0.4,0,0.6-0.1c0.2-0.1,0.1-0.3,0.3-0.5c0.1-0.1,0.3,0,0.4-0.1c0.2-0.1,0.3-0.3,0.4-0.5c0-0.1,0-0.1,0-0.2
					c0-0.1,0.1-0.2,0.1-0.3c0-0.1-0.1-0.1-0.1-0.2c0-0.1,0-0.2,0-0.3c0-0.2,0-0.4-0.1-0.5c-0.4-0.7-1.2-0.9-2-0.8
					c-0.2,0-0.3,0.1-0.4,0.2c-0.2,0.1-0.1,0.2-0.3,0.2c-0.1,0-0.2,0.1-0.2,0.2C61.8-48.7,61.8-48.8,61.8-48.7
					C61.8-48.7,61.8-48.7,61.8-48.7"/>
				<path class="st2" d="M54.1-48.7c0,0.1,0,0.1,0,0.2c-0.1,0.1-0.1,0.1-0.2,0.1c-0.1,0.1-0.1,0.3-0.1,0.4c-0.2,0.1,0,0.2,0,0.3
					c0,0,0,0.1,0,0.2c0,0.1,0,0.3,0.1,0.4c0.1,0.2,0.3,0.4,0.4,0.5c0.2,0.1,0.4,0.6,0.6,0.6c0.2,0,0.4-0.1,0.5-0.1
					c0.2,0,0.4,0,0.6-0.1c0.2-0.1,0.1-0.3,0.3-0.5c0.1-0.1,0.3,0,0.4-0.1c0.2-0.1,0.3-0.3,0.4-0.5c0-0.1,0-0.1,0-0.2
					c0-0.1,0.1-0.2,0.1-0.3c0-0.1-0.1-0.1-0.1-0.2c0-0.1,0-0.2,0-0.3c0-0.2,0-0.4-0.1-0.5c-0.4-0.7-1.2-0.9-2-0.8
					c-0.2,0-0.3,0.1-0.4,0.2c-0.2,0.1-0.1,0.2-0.3,0.2c-0.1,0-0.2,0.1-0.2,0.2C54.1-48.7,54.1-48.8,54.1-48.7
					C54.1-48.7,54.1-48.7,54.1-48.7"/>
				<path class="st2" d="M46.5-48.7c0,0.1,0,0.1,0,0.2c-0.1,0.1-0.1,0.1-0.2,0.1c-0.1,0.1-0.1,0.3-0.1,0.4c-0.2,0.1,0,0.2,0,0.3
					c0,0,0,0.1,0,0.2c0,0.1,0,0.3,0.1,0.4c0.1,0.2,0.3,0.4,0.4,0.5c0.2,0.1,0.4,0.6,0.6,0.6c0.2,0,0.4-0.1,0.5-0.1
					c0.2,0,0.4,0,0.6-0.1c0.2-0.1,0.1-0.3,0.3-0.5c0.1-0.1,0.3,0,0.4-0.1c0.2-0.1,0.3-0.3,0.4-0.5c0-0.1,0-0.1,0-0.2
					c0-0.1,0.1-0.2,0.1-0.3c0-0.1-0.1-0.1-0.1-0.2c0-0.1,0-0.2,0-0.3c0-0.2,0-0.4-0.1-0.5c-0.4-0.7-1.2-0.9-2-0.8
					c-0.2,0-0.3,0.1-0.4,0.2c-0.2,0.1-0.1,0.2-0.3,0.2c-0.1,0-0.2,0.1-0.2,0.2C46.5-48.7,46.5-48.8,46.5-48.7
					C46.5-48.7,46.5-48.7,46.5-48.7"/>
				<path class="st2" d="M38.8-48.7c0,0.1,0,0.1,0,0.2c-0.1,0.1-0.1,0.1-0.2,0.1c-0.1,0.1-0.1,0.3-0.1,0.4c-0.2,0.1,0,0.2,0,0.3
					c0,0,0,0.1,0,0.2c0,0.1,0,0.3,0.1,0.4c0.1,0.2,0.3,0.4,0.4,0.5c0.2,0.1,0.4,0.6,0.6,0.6c0.2,0,0.4-0.1,0.5-0.1
					c0.2,0,0.4,0,0.6-0.1c0.2-0.1,0.1-0.3,0.3-0.5c0.1-0.1,0.3,0,0.4-0.1c0.2-0.1,0.3-0.3,0.4-0.5c0-0.1,0-0.1,0-0.2
					c0-0.1,0.1-0.2,0.1-0.3c0-0.1-0.1-0.1-0.1-0.2c0-0.1,0-0.2,0-0.3c0-0.2,0-0.4-0.1-0.5c-0.4-0.7-1.2-0.9-2-0.8
					c-0.2,0-0.3,0.1-0.4,0.2c-0.2,0.1-0.1,0.2-0.3,0.2c-0.1,0-0.2,0.1-0.2,0.2C38.8-48.7,38.8-48.8,38.8-48.7
					C38.8-48.7,38.8-48.7,38.8-48.7"/>
				<path class="st2" d="M31.1-48.7c0,0.1,0,0.1,0,0.2c-0.1,0.1-0.1,0.1-0.2,0.1c-0.1,0.1-0.1,0.3-0.1,0.4c-0.2,0.1,0,0.2,0,0.3
					c0,0,0,0.1,0,0.2c0,0.1,0,0.3,0.1,0.4c0.1,0.2,0.3,0.4,0.4,0.5c0.2,0.1,0.4,0.6,0.6,0.6c0.2,0,0.4-0.1,0.5-0.1
					c0.2,0,0.4,0,0.6-0.1c0.2-0.1,0.1-0.3,0.3-0.5c0.1-0.1,0.3,0,0.4-0.1c0.2-0.1,0.3-0.3,0.4-0.5c0-0.1,0-0.1,0-0.2
					c0-0.1,0.1-0.2,0.1-0.3c0-0.1-0.1-0.1-0.1-0.2c0-0.1,0-0.2,0-0.3c0-0.2,0-0.4-0.1-0.5c-0.4-0.7-1.2-0.9-2-0.8
					c-0.2,0-0.3,0.1-0.4,0.2c-0.2,0.1-0.1,0.2-0.3,0.2c-0.1,0-0.2,0.1-0.2,0.2C31.1-48.7,31.1-48.8,31.1-48.7
					C31.1-48.7,31.1-48.7,31.1-48.7"/>
				<path class="st2" d="M23.5-48.7c0,0.1,0,0.1,0,0.2c-0.1,0.1-0.1,0.1-0.2,0.1c-0.1,0.1-0.1,0.3-0.1,0.4c-0.2,0.1,0,0.2,0,0.3
					c0,0,0,0.1,0,0.2c0,0.1,0,0.3,0.1,0.4c0.1,0.2,0.3,0.4,0.4,0.5c0.2,0.1,0.4,0.6,0.6,0.6c0.2,0,0.4-0.1,0.5-0.1
					c0.2,0,0.4,0,0.6-0.1c0.2-0.1,0.1-0.3,0.3-0.5c0.1-0.1,0.3,0,0.4-0.1c0.2-0.1,0.3-0.3,0.4-0.5c0-0.1,0-0.1,0-0.2
					c0-0.1,0.1-0.2,0.1-0.3c0-0.1-0.1-0.1-0.1-0.2c0-0.1,0-0.2,0-0.3c0-0.2,0-0.4-0.1-0.5c-0.4-0.7-1.2-0.9-2-0.8
					c-0.2,0-0.3,0.1-0.4,0.2c-0.2,0.1-0.1,0.2-0.3,0.2c-0.1,0-0.2,0.1-0.2,0.2C23.5-48.7,23.5-48.8,23.5-48.7
					C23.5-48.7,23.5-48.7,23.5-48.7"/>
				<path class="st2" d="M15.8-48.7c0,0.1,0,0.1,0,0.2c-0.1,0.1-0.1,0.1-0.2,0.1c-0.1,0.1-0.1,0.3-0.1,0.4c-0.2,0.1,0,0.2,0,0.3
					c0,0,0,0.1,0,0.2c0,0.1,0,0.3,0.1,0.4c0.1,0.2,0.3,0.4,0.4,0.5c0.2,0.1,0.4,0.6,0.6,0.6c0.2,0,0.4-0.1,0.5-0.1
					c0.2,0,0.4,0,0.6-0.1c0.2-0.1,0.1-0.3,0.3-0.5c0.1-0.1,0.3,0,0.4-0.1c0.2-0.1,0.3-0.3,0.4-0.5c0-0.1,0-0.1,0-0.2
					c0-0.1,0.1-0.2,0.1-0.3c0-0.1-0.1-0.1-0.1-0.2c0-0.1,0-0.2,0-0.3c0-0.2,0-0.4-0.1-0.5c-0.4-0.7-1.2-0.9-2-0.8
					c-0.2,0-0.3,0.1-0.4,0.2c-0.2,0.1-0.1,0.2-0.3,0.2c-0.1,0-0.2,0.1-0.2,0.2C15.8-48.7,15.8-48.8,15.8-48.7
					C15.8-48.7,15.8-48.7,15.8-48.7"/>
				<path class="st2" d="M8.2-48.7c0,0.1,0,0.1,0,0.2C8.1-48.4,8-48.4,8-48.4c-0.1,0.1-0.1,0.3-0.1,0.4c-0.2,0.1,0,0.2,0,0.3
					c0,0,0,0.1,0,0.2c0,0.1,0,0.3,0.1,0.4c0.1,0.2,0.3,0.4,0.4,0.5C8.5-46.4,8.7-46,8.9-46c0.2,0,0.4-0.1,0.5-0.1
					c0.2,0,0.4,0,0.6-0.1c0.2-0.1,0.1-0.3,0.3-0.5c0.1-0.1,0.3,0,0.4-0.1c0.2-0.1,0.3-0.3,0.4-0.5c0-0.1,0-0.1,0-0.2
					c0-0.1,0.1-0.2,0.1-0.3c0-0.1-0.1-0.1-0.1-0.2c0-0.1,0-0.2,0-0.3c0-0.2,0-0.4-0.1-0.5c-0.4-0.7-1.2-0.9-2-0.8
					c-0.2,0-0.3,0.1-0.4,0.2c-0.2,0.1-0.1,0.2-0.3,0.2c-0.1,0-0.2,0.1-0.2,0.2C8.2-48.7,8.2-48.8,8.2-48.7
					C8.1-48.7,8.1-48.7,8.2-48.7"/>
				<path class="st2" d="M0.5-48.7c0,0.1,0,0.1,0,0.2c-0.1,0.1-0.1,0.1-0.2,0.1c-0.1,0.1-0.1,0.3-0.1,0.4c-0.2,0.1,0,0.2,0,0.3
					c0,0,0,0.1,0,0.2c0,0.1,0,0.3,0.1,0.4c0.1,0.2,0.3,0.4,0.4,0.5C0.9-46.4,1-46,1.3-46c0.2,0,0.4-0.1,0.5-0.1c0.2,0,0.4,0,0.6-0.1
					c0.2-0.1,0.1-0.3,0.3-0.5c0.1-0.1,0.3,0,0.4-0.1c0.2-0.1,0.3-0.3,0.4-0.5c0-0.1,0-0.1,0-0.2c0-0.1,0.1-0.2,0.1-0.3
					c0-0.1-0.1-0.1-0.1-0.2c0-0.1,0-0.2,0-0.3c0-0.2,0-0.4-0.1-0.5c-0.4-0.7-1.2-0.9-2-0.8c-0.2,0-0.3,0.1-0.4,0.2
					c-0.2,0.1-0.1,0.2-0.3,0.2c-0.1,0-0.2,0.1-0.2,0.2C0.5-48.7,0.5-48.8,0.5-48.7C0.5-48.7,0.5-48.7,0.5-48.7"/>
			</g>
			<g>
				<path class="st2" d="M69.4-41c0,0.1,0,0.1,0,0.2c-0.1,0.1-0.1,0.1-0.2,0.1c-0.1,0.1-0.1,0.3-0.1,0.4c-0.2,0.1,0,0.2,0,0.3
					c0,0,0,0.1,0,0.2c0,0.1,0,0.3,0.1,0.4c0.1,0.2,0.3,0.4,0.4,0.5c0.2,0.1,0.4,0.6,0.6,0.6c0.2,0,0.4-0.1,0.5-0.1
					c0.2,0,0.4,0,0.6-0.1c0.2-0.1,0.1-0.3,0.3-0.5c0.1-0.1,0.3,0,0.4-0.1c0.2-0.1,0.3-0.3,0.4-0.5c0-0.1,0-0.1,0-0.2
					c0-0.1,0.1-0.2,0.1-0.3c0-0.1-0.1-0.1-0.1-0.2c0-0.1,0-0.2,0-0.3c0-0.2,0-0.4-0.1-0.5c-0.4-0.7-1.2-0.9-2-0.8
					c-0.2,0-0.3,0.1-0.4,0.2c-0.2,0.1-0.1,0.2-0.3,0.2c-0.1,0-0.2,0.1-0.2,0.2C69.4-41.1,69.4-41.1,69.4-41C69.4-41,69.4-41,69.4-41
					"/>
				<path class="st2" d="M61.8-41c0,0.1,0,0.1,0,0.2c-0.1,0.1-0.1,0.1-0.2,0.1c-0.1,0.1-0.1,0.3-0.1,0.4c-0.2,0.1,0,0.2,0,0.3
					c0,0,0,0.1,0,0.2c0,0.1,0,0.3,0.1,0.4c0.1,0.2,0.3,0.4,0.4,0.5c0.2,0.1,0.4,0.6,0.6,0.6c0.2,0,0.4-0.1,0.5-0.1
					c0.2,0,0.4,0,0.6-0.1c0.2-0.1,0.1-0.3,0.3-0.5c0.1-0.1,0.3,0,0.4-0.1c0.2-0.1,0.3-0.3,0.4-0.5c0-0.1,0-0.1,0-0.2
					c0-0.1,0.1-0.2,0.1-0.3c0-0.1-0.1-0.1-0.1-0.2c0-0.1,0-0.2,0-0.3c0-0.2,0-0.4-0.1-0.5c-0.4-0.7-1.2-0.9-2-0.8
					c-0.2,0-0.3,0.1-0.4,0.2c-0.2,0.1-0.1,0.2-0.3,0.2c-0.1,0-0.2,0.1-0.2,0.2C61.8-41.1,61.8-41.1,61.8-41C61.8-41,61.8-41,61.8-41
					"/>
				<path class="st2" d="M54.1-41c0,0.1,0,0.1,0,0.2c-0.1,0.1-0.1,0.1-0.2,0.1c-0.1,0.1-0.1,0.3-0.1,0.4c-0.2,0.1,0,0.2,0,0.3
					c0,0,0,0.1,0,0.2c0,0.1,0,0.3,0.1,0.4c0.1,0.2,0.3,0.4,0.4,0.5c0.2,0.1,0.4,0.6,0.6,0.6c0.2,0,0.4-0.1,0.5-0.1
					c0.2,0,0.4,0,0.6-0.1c0.2-0.1,0.1-0.3,0.3-0.5c0.1-0.1,0.3,0,0.4-0.1c0.2-0.1,0.3-0.3,0.4-0.5c0-0.1,0-0.1,0-0.2
					c0-0.1,0.1-0.2,0.1-0.3c0-0.1-0.1-0.1-0.1-0.2c0-0.1,0-0.2,0-0.3c0-0.2,0-0.4-0.1-0.5c-0.4-0.7-1.2-0.9-2-0.8
					c-0.2,0-0.3,0.1-0.4,0.2c-0.2,0.1-0.1,0.2-0.3,0.2c-0.1,0-0.2,0.1-0.2,0.2C54.1-41.1,54.1-41.1,54.1-41C54.1-41,54.1-41,54.1-41
					"/>
				<path class="st2" d="M46.5-41c0,0.1,0,0.1,0,0.2c-0.1,0.1-0.1,0.1-0.2,0.1c-0.1,0.1-0.1,0.3-0.1,0.4c-0.2,0.1,0,0.2,0,0.3
					c0,0,0,0.1,0,0.2c0,0.1,0,0.3,0.1,0.4c0.1,0.2,0.3,0.4,0.4,0.5c0.2,0.1,0.4,0.6,0.6,0.6c0.2,0,0.4-0.1,0.5-0.1
					c0.2,0,0.4,0,0.6-0.1c0.2-0.1,0.1-0.3,0.3-0.5c0.1-0.1,0.3,0,0.4-0.1c0.2-0.1,0.3-0.3,0.4-0.5c0-0.1,0-0.1,0-0.2
					c0-0.1,0.1-0.2,0.1-0.3c0-0.1-0.1-0.1-0.1-0.2c0-0.1,0-0.2,0-0.3c0-0.2,0-0.4-0.1-0.5c-0.4-0.7-1.2-0.9-2-0.8
					c-0.2,0-0.3,0.1-0.4,0.2c-0.2,0.1-0.1,0.2-0.3,0.2c-0.1,0-0.2,0.1-0.2,0.2C46.5-41.1,46.5-41.1,46.5-41C46.5-41,46.5-41,46.5-41
					"/>
				<path class="st2" d="M38.8-41c0,0.1,0,0.1,0,0.2c-0.1,0.1-0.1,0.1-0.2,0.1c-0.1,0.1-0.1,0.3-0.1,0.4c-0.2,0.1,0,0.2,0,0.3
					c0,0,0,0.1,0,0.2c0,0.1,0,0.3,0.1,0.4c0.1,0.2,0.3,0.4,0.4,0.5c0.2,0.1,0.4,0.6,0.6,0.6c0.2,0,0.4-0.1,0.5-0.1
					c0.2,0,0.4,0,0.6-0.1c0.2-0.1,0.1-0.3,0.3-0.5c0.1-0.1,0.3,0,0.4-0.1c0.2-0.1,0.3-0.3,0.4-0.5c0-0.1,0-0.1,0-0.2
					c0-0.1,0.1-0.2,0.1-0.3c0-0.1-0.1-0.1-0.1-0.2c0-0.1,0-0.2,0-0.3c0-0.2,0-0.4-0.1-0.5c-0.4-0.7-1.2-0.9-2-0.8
					c-0.2,0-0.3,0.1-0.4,0.2c-0.2,0.1-0.1,0.2-0.3,0.2c-0.1,0-0.2,0.1-0.2,0.2C38.8-41.1,38.8-41.1,38.8-41C38.8-41,38.8-41,38.8-41
					"/>
				<path class="st2" d="M31.1-41c0,0.1,0,0.1,0,0.2c-0.1,0.1-0.1,0.1-0.2,0.1c-0.1,0.1-0.1,0.3-0.1,0.4c-0.2,0.1,0,0.2,0,0.3
					c0,0,0,0.1,0,0.2c0,0.1,0,0.3,0.1,0.4c0.1,0.2,0.3,0.4,0.4,0.5c0.2,0.1,0.4,0.6,0.6,0.6c0.2,0,0.4-0.1,0.5-0.1
					c0.2,0,0.4,0,0.6-0.1c0.2-0.1,0.1-0.3,0.3-0.5c0.1-0.1,0.3,0,0.4-0.1c0.2-0.1,0.3-0.3,0.4-0.5c0-0.1,0-0.1,0-0.2
					c0-0.1,0.1-0.2,0.1-0.3c0-0.1-0.1-0.1-0.1-0.2c0-0.1,0-0.2,0-0.3c0-0.2,0-0.4-0.1-0.5c-0.4-0.7-1.2-0.9-2-0.8
					c-0.2,0-0.3,0.1-0.4,0.2c-0.2,0.1-0.1,0.2-0.3,0.2c-0.1,0-0.2,0.1-0.2,0.2C31.1-41.1,31.1-41.1,31.1-41C31.1-41,31.1-41,31.1-41
					"/>
				<path class="st2" d="M23.5-41c0,0.1,0,0.1,0,0.2c-0.1,0.1-0.1,0.1-0.2,0.1c-0.1,0.1-0.1,0.3-0.1,0.4c-0.2,0.1,0,0.2,0,0.3
					c0,0,0,0.1,0,0.2c0,0.1,0,0.3,0.1,0.4c0.1,0.2,0.3,0.4,0.4,0.5c0.2,0.1,0.4,0.6,0.6,0.6c0.2,0,0.4-0.1,0.5-0.1
					c0.2,0,0.4,0,0.6-0.1c0.2-0.1,0.1-0.3,0.3-0.5c0.1-0.1,0.3,0,0.4-0.1c0.2-0.1,0.3-0.3,0.4-0.5c0-0.1,0-0.1,0-0.2
					c0-0.1,0.1-0.2,0.1-0.3c0-0.1-0.1-0.1-0.1-0.2c0-0.1,0-0.2,0-0.3c0-0.2,0-0.4-0.1-0.5c-0.4-0.7-1.2-0.9-2-0.8
					c-0.2,0-0.3,0.1-0.4,0.2c-0.2,0.1-0.1,0.2-0.3,0.2c-0.1,0-0.2,0.1-0.2,0.2C23.5-41.1,23.5-41.1,23.5-41C23.5-41,23.5-41,23.5-41
					"/>
				<path class="st2" d="M15.8-41c0,0.1,0,0.1,0,0.2c-0.1,0.1-0.1,0.1-0.2,0.1c-0.1,0.1-0.1,0.3-0.1,0.4c-0.2,0.1,0,0.2,0,0.3
					c0,0,0,0.1,0,0.2c0,0.1,0,0.3,0.1,0.4c0.1,0.2,0.3,0.4,0.4,0.5c0.2,0.1,0.4,0.6,0.6,0.6c0.2,0,0.4-0.1,0.5-0.1
					c0.2,0,0.4,0,0.6-0.1c0.2-0.1,0.1-0.3,0.3-0.5c0.1-0.1,0.3,0,0.4-0.1c0.2-0.1,0.3-0.3,0.4-0.5c0-0.1,0-0.1,0-0.2
					c0-0.1,0.1-0.2,0.1-0.3c0-0.1-0.1-0.1-0.1-0.2c0-0.1,0-0.2,0-0.3c0-0.2,0-0.4-0.1-0.5c-0.4-0.7-1.2-0.9-2-0.8
					c-0.2,0-0.3,0.1-0.4,0.2c-0.2,0.1-0.1,0.2-0.3,0.2c-0.1,0-0.2,0.1-0.2,0.2C15.8-41.1,15.8-41.1,15.8-41C15.8-41,15.8-41,15.8-41
					"/>
				<path class="st2" d="M8.2-41c0,0.1,0,0.1,0,0.2C8.1-40.8,8-40.8,8-40.7c-0.1,0.1-0.1,0.3-0.1,0.4c-0.2,0.1,0,0.2,0,0.3
					c0,0,0,0.1,0,0.2c0,0.1,0,0.3,0.1,0.4c0.1,0.2,0.3,0.4,0.4,0.5c0.2,0.1,0.4,0.6,0.6,0.6c0.2,0,0.4-0.1,0.5-0.1
					c0.2,0,0.4,0,0.6-0.1c0.2-0.1,0.1-0.3,0.3-0.5c0.1-0.1,0.3,0,0.4-0.1c0.2-0.1,0.3-0.3,0.4-0.5c0-0.1,0-0.1,0-0.2
					c0-0.1,0.1-0.2,0.1-0.3c0-0.1-0.1-0.1-0.1-0.2c0-0.1,0-0.2,0-0.3c0-0.2,0-0.4-0.1-0.5c-0.4-0.7-1.2-0.9-2-0.8
					c-0.2,0-0.3,0.1-0.4,0.2c-0.2,0.1-0.1,0.2-0.3,0.2c-0.1,0-0.2,0.1-0.2,0.2C8.2-41.1,8.2-41.1,8.2-41C8.1-41,8.1-41,8.2-41"/>
				<path class="st2" d="M0.5-41c0,0.1,0,0.1,0,0.2c-0.1,0.1-0.1,0.1-0.2,0.1c-0.1,0.1-0.1,0.3-0.1,0.4c-0.2,0.1,0,0.2,0,0.3
					c0,0,0,0.1,0,0.2c0,0.1,0,0.3,0.1,0.4c0.1,0.2,0.3,0.4,0.4,0.5c0.2,0.1,0.4,0.6,0.6,0.6c0.2,0,0.4-0.1,0.5-0.1
					c0.2,0,0.4,0,0.6-0.1c0.2-0.1,0.1-0.3,0.3-0.5C2.8-39,3-39,3.1-39c0.2-0.1,0.3-0.3,0.4-0.5c0-0.1,0-0.1,0-0.2
					c0-0.1,0.1-0.2,0.1-0.3c0-0.1-0.1-0.1-0.1-0.2c0-0.1,0-0.2,0-0.3c0-0.2,0-0.4-0.1-0.5c-0.4-0.7-1.2-0.9-2-0.8
					c-0.2,0-0.3,0.1-0.4,0.2c-0.2,0.1-0.1,0.2-0.3,0.2c-0.1,0-0.2,0.1-0.2,0.2C0.5-41.1,0.5-41.1,0.5-41C0.5-41,0.5-41,0.5-41"/>
			</g>
			<g>
				<path class="st2" d="M69.4-33.4c0,0.1,0,0.1,0,0.2c-0.1,0.1-0.1,0.1-0.2,0.1c-0.1,0.1-0.1,0.3-0.1,0.4c-0.2,0.1,0,0.2,0,0.3
					c0,0,0,0.1,0,0.2c0,0.1,0,0.3,0.1,0.4c0.1,0.2,0.3,0.4,0.4,0.5c0.2,0.1,0.4,0.6,0.6,0.6c0.2,0,0.4-0.1,0.5-0.1
					c0.2,0,0.4,0,0.6-0.1c0.2-0.1,0.1-0.3,0.3-0.5c0.1-0.1,0.3,0,0.4-0.1c0.2-0.1,0.3-0.3,0.4-0.5c0-0.1,0-0.1,0-0.2
					c0-0.1,0.1-0.2,0.1-0.3c0-0.1-0.1-0.1-0.1-0.2c0-0.1,0-0.2,0-0.3c0-0.2,0-0.4-0.1-0.5c-0.4-0.7-1.2-0.9-2-0.8
					c-0.2,0-0.3,0.1-0.4,0.2c-0.2,0.1-0.1,0.2-0.3,0.2c-0.1,0-0.2,0.1-0.2,0.2C69.4-33.4,69.4-33.5,69.4-33.4
					C69.4-33.4,69.4-33.4,69.4-33.4"/>
				<path class="st2" d="M61.8-33.4c0,0.1,0,0.1,0,0.2c-0.1,0.1-0.1,0.1-0.2,0.1c-0.1,0.1-0.1,0.3-0.1,0.4c-0.2,0.1,0,0.2,0,0.3
					c0,0,0,0.1,0,0.2c0,0.1,0,0.3,0.1,0.4c0.1,0.2,0.3,0.4,0.4,0.5c0.2,0.1,0.4,0.6,0.6,0.6c0.2,0,0.4-0.1,0.5-0.1
					c0.2,0,0.4,0,0.6-0.1c0.2-0.1,0.1-0.3,0.3-0.5c0.1-0.1,0.3,0,0.4-0.1c0.2-0.1,0.3-0.3,0.4-0.5c0-0.1,0-0.1,0-0.2
					c0-0.1,0.1-0.2,0.1-0.3c0-0.1-0.1-0.1-0.1-0.2c0-0.1,0-0.2,0-0.3c0-0.2,0-0.4-0.1-0.5c-0.4-0.7-1.2-0.9-2-0.8
					c-0.2,0-0.3,0.1-0.4,0.2c-0.2,0.1-0.1,0.2-0.3,0.2c-0.1,0-0.2,0.1-0.2,0.2C61.8-33.4,61.8-33.5,61.8-33.4
					C61.8-33.4,61.8-33.4,61.8-33.4"/>
				<path class="st2" d="M54.1-33.4c0,0.1,0,0.1,0,0.2c-0.1,0.1-0.1,0.1-0.2,0.1c-0.1,0.1-0.1,0.3-0.1,0.4c-0.2,0.1,0,0.2,0,0.3
					c0,0,0,0.1,0,0.2c0,0.1,0,0.3,0.1,0.4c0.1,0.2,0.3,0.4,0.4,0.5c0.2,0.1,0.4,0.6,0.6,0.6c0.2,0,0.4-0.1,0.5-0.1
					c0.2,0,0.4,0,0.6-0.1c0.2-0.1,0.1-0.3,0.3-0.5c0.1-0.1,0.3,0,0.4-0.1c0.2-0.1,0.3-0.3,0.4-0.5c0-0.1,0-0.1,0-0.2
					c0-0.1,0.1-0.2,0.1-0.3c0-0.1-0.1-0.1-0.1-0.2c0-0.1,0-0.2,0-0.3c0-0.2,0-0.4-0.1-0.5c-0.4-0.7-1.2-0.9-2-0.8
					c-0.2,0-0.3,0.1-0.4,0.2c-0.2,0.1-0.1,0.2-0.3,0.2c-0.1,0-0.2,0.1-0.2,0.2C54.1-33.4,54.1-33.5,54.1-33.4
					C54.1-33.4,54.1-33.4,54.1-33.4"/>
				<path class="st2" d="M46.5-33.4c0,0.1,0,0.1,0,0.2c-0.1,0.1-0.1,0.1-0.2,0.1c-0.1,0.1-0.1,0.3-0.1,0.4c-0.2,0.1,0,0.2,0,0.3
					c0,0,0,0.1,0,0.2c0,0.1,0,0.3,0.1,0.4c0.1,0.2,0.3,0.4,0.4,0.5c0.2,0.1,0.4,0.6,0.6,0.6c0.2,0,0.4-0.1,0.5-0.1
					c0.2,0,0.4,0,0.6-0.1c0.2-0.1,0.1-0.3,0.3-0.5c0.1-0.1,0.3,0,0.4-0.1c0.2-0.1,0.3-0.3,0.4-0.5c0-0.1,0-0.1,0-0.2
					c0-0.1,0.1-0.2,0.1-0.3c0-0.1-0.1-0.1-0.1-0.2c0-0.1,0-0.2,0-0.3c0-0.2,0-0.4-0.1-0.5c-0.4-0.7-1.2-0.9-2-0.8
					c-0.2,0-0.3,0.1-0.4,0.2c-0.2,0.1-0.1,0.2-0.3,0.2c-0.1,0-0.2,0.1-0.2,0.2C46.5-33.4,46.5-33.5,46.5-33.4
					C46.5-33.4,46.5-33.4,46.5-33.4"/>
				<path class="st2" d="M38.8-33.4c0,0.1,0,0.1,0,0.2c-0.1,0.1-0.1,0.1-0.2,0.1c-0.1,0.1-0.1,0.3-0.1,0.4c-0.2,0.1,0,0.2,0,0.3
					c0,0,0,0.1,0,0.2c0,0.1,0,0.3,0.1,0.4c0.1,0.2,0.3,0.4,0.4,0.5c0.2,0.1,0.4,0.6,0.6,0.6c0.2,0,0.4-0.1,0.5-0.1
					c0.2,0,0.4,0,0.6-0.1c0.2-0.1,0.1-0.3,0.3-0.5c0.1-0.1,0.3,0,0.4-0.1c0.2-0.1,0.3-0.3,0.4-0.5c0-0.1,0-0.1,0-0.2
					c0-0.1,0.1-0.2,0.1-0.3c0-0.1-0.1-0.1-0.1-0.2c0-0.1,0-0.2,0-0.3c0-0.2,0-0.4-0.1-0.5c-0.4-0.7-1.2-0.9-2-0.8
					c-0.2,0-0.3,0.1-0.4,0.2c-0.2,0.1-0.1,0.2-0.3,0.2c-0.1,0-0.2,0.1-0.2,0.2C38.8-33.4,38.8-33.5,38.8-33.4
					C38.8-33.4,38.8-33.4,38.8-33.4"/>
				<path class="st2" d="M31.1-33.4c0,0.1,0,0.1,0,0.2c-0.1,0.1-0.1,0.1-0.2,0.1c-0.1,0.1-0.1,0.3-0.1,0.4c-0.2,0.1,0,0.2,0,0.3
					c0,0,0,0.1,0,0.2c0,0.1,0,0.3,0.1,0.4c0.1,0.2,0.3,0.4,0.4,0.5c0.2,0.1,0.4,0.6,0.6,0.6c0.2,0,0.4-0.1,0.5-0.1
					c0.2,0,0.4,0,0.6-0.1c0.2-0.1,0.1-0.3,0.3-0.5c0.1-0.1,0.3,0,0.4-0.1c0.2-0.1,0.3-0.3,0.4-0.5c0-0.1,0-0.1,0-0.2
					c0-0.1,0.1-0.2,0.1-0.3c0-0.1-0.1-0.1-0.1-0.2c0-0.1,0-0.2,0-0.3c0-0.2,0-0.4-0.1-0.5c-0.4-0.7-1.2-0.9-2-0.8
					c-0.2,0-0.3,0.1-0.4,0.2c-0.2,0.1-0.1,0.2-0.3,0.2c-0.1,0-0.2,0.1-0.2,0.2C31.1-33.4,31.1-33.5,31.1-33.4
					C31.1-33.4,31.1-33.4,31.1-33.4"/>
				<path class="st2" d="M23.5-33.4c0,0.1,0,0.1,0,0.2c-0.1,0.1-0.1,0.1-0.2,0.1c-0.1,0.1-0.1,0.3-0.1,0.4c-0.2,0.1,0,0.2,0,0.3
					c0,0,0,0.1,0,0.2c0,0.1,0,0.3,0.1,0.4c0.1,0.2,0.3,0.4,0.4,0.5c0.2,0.1,0.4,0.6,0.6,0.6c0.2,0,0.4-0.1,0.5-0.1
					c0.2,0,0.4,0,0.6-0.1c0.2-0.1,0.1-0.3,0.3-0.5c0.1-0.1,0.3,0,0.4-0.1c0.2-0.1,0.3-0.3,0.4-0.5c0-0.1,0-0.1,0-0.2
					c0-0.1,0.1-0.2,0.1-0.3c0-0.1-0.1-0.1-0.1-0.2c0-0.1,0-0.2,0-0.3c0-0.2,0-0.4-0.1-0.5c-0.4-0.7-1.2-0.9-2-0.8
					c-0.2,0-0.3,0.1-0.4,0.2c-0.2,0.1-0.1,0.2-0.3,0.2c-0.1,0-0.2,0.1-0.2,0.2C23.5-33.4,23.5-33.5,23.5-33.4
					C23.5-33.4,23.5-33.4,23.5-33.4"/>
				<path class="st2" d="M15.8-33.4c0,0.1,0,0.1,0,0.2c-0.1,0.1-0.1,0.1-0.2,0.1c-0.1,0.1-0.1,0.3-0.1,0.4c-0.2,0.1,0,0.2,0,0.3
					c0,0,0,0.1,0,0.2c0,0.1,0,0.3,0.1,0.4c0.1,0.2,0.3,0.4,0.4,0.5c0.2,0.1,0.4,0.6,0.6,0.6c0.2,0,0.4-0.1,0.5-0.1
					c0.2,0,0.4,0,0.6-0.1c0.2-0.1,0.1-0.3,0.3-0.5c0.1-0.1,0.3,0,0.4-0.1c0.2-0.1,0.3-0.3,0.4-0.5c0-0.1,0-0.1,0-0.2
					c0-0.1,0.1-0.2,0.1-0.3c0-0.1-0.1-0.1-0.1-0.2c0-0.1,0-0.2,0-0.3c0-0.2,0-0.4-0.1-0.5c-0.4-0.7-1.2-0.9-2-0.8
					c-0.2,0-0.3,0.1-0.4,0.2c-0.2,0.1-0.1,0.2-0.3,0.2c-0.1,0-0.2,0.1-0.2,0.2C15.8-33.4,15.8-33.5,15.8-33.4
					C15.8-33.4,15.8-33.4,15.8-33.4"/>
				<path class="st2" d="M8.2-33.4c0,0.1,0,0.1,0,0.2C8.1-33.1,8-33.1,8-33.1c-0.1,0.1-0.1,0.3-0.1,0.4c-0.2,0.1,0,0.2,0,0.3
					c0,0,0,0.1,0,0.2c0,0.1,0,0.3,0.1,0.4c0.1,0.2,0.3,0.4,0.4,0.5c0.2,0.1,0.4,0.6,0.6,0.6c0.2,0,0.4-0.1,0.5-0.1
					c0.2,0,0.4,0,0.6-0.1c0.2-0.1,0.1-0.3,0.3-0.5c0.1-0.1,0.3,0,0.4-0.1c0.2-0.1,0.3-0.3,0.4-0.5c0-0.1,0-0.1,0-0.2
					c0-0.1,0.1-0.2,0.1-0.3c0-0.1-0.1-0.1-0.1-0.2c0-0.1,0-0.2,0-0.3c0-0.2,0-0.4-0.1-0.5c-0.4-0.7-1.2-0.9-2-0.8
					c-0.2,0-0.3,0.1-0.4,0.2c-0.2,0.1-0.1,0.2-0.3,0.2c-0.1,0-0.2,0.1-0.2,0.2C8.2-33.4,8.2-33.5,8.2-33.4
					C8.1-33.4,8.1-33.4,8.2-33.4"/>
				<path class="st2" d="M0.5-33.4c0,0.1,0,0.1,0,0.2c-0.1,0.1-0.1,0.1-0.2,0.1c-0.1,0.1-0.1,0.3-0.1,0.4c-0.2,0.1,0,0.2,0,0.3
					c0,0,0,0.1,0,0.2c0,0.1,0,0.3,0.1,0.4c0.1,0.2,0.3,0.4,0.4,0.5c0.2,0.1,0.4,0.6,0.6,0.6c0.2,0,0.4-0.1,0.5-0.1
					c0.2,0,0.4,0,0.6-0.1c0.2-0.1,0.1-0.3,0.3-0.5c0.1-0.1,0.3,0,0.4-0.1c0.2-0.1,0.3-0.3,0.4-0.5c0-0.1,0-0.1,0-0.2
					c0-0.1,0.1-0.2,0.1-0.3c0-0.1-0.1-0.1-0.1-0.2c0-0.1,0-0.2,0-0.3c0-0.2,0-0.4-0.1-0.5c-0.4-0.7-1.2-0.9-2-0.8
					c-0.2,0-0.3,0.1-0.4,0.2c-0.2,0.1-0.1,0.2-0.3,0.2c-0.1,0-0.2,0.1-0.2,0.2C0.5-33.4,0.5-33.5,0.5-33.4
					C0.5-33.4,0.5-33.4,0.5-33.4"/>
			</g>
			<g>
				<path class="st2" d="M69.4-25.7c0,0.1,0,0.1,0,0.2c-0.1,0.1-0.1,0.1-0.2,0.1c-0.1,0.1-0.1,0.3-0.1,0.4c-0.2,0.1,0,0.2,0,0.3
					c0,0,0,0.1,0,0.2c0,0.1,0,0.3,0.1,0.4c0.1,0.2,0.3,0.4,0.4,0.5c0.2,0.1,0.4,0.6,0.6,0.6c0.2,0,0.4-0.1,0.5-0.1
					c0.2,0,0.4,0,0.6-0.1c0.2-0.1,0.1-0.3,0.3-0.5c0.1-0.1,0.3,0,0.4-0.1c0.2-0.1,0.3-0.3,0.4-0.5c0-0.1,0-0.1,0-0.2
					c0-0.1,0.1-0.2,0.1-0.3c0-0.1-0.1-0.1-0.1-0.2c0-0.1,0-0.2,0-0.3c0-0.2,0-0.4-0.1-0.5c-0.4-0.7-1.2-0.9-2-0.8
					c-0.2,0-0.3,0.1-0.4,0.2c-0.2,0.1-0.1,0.2-0.3,0.2c-0.1,0-0.2,0.1-0.2,0.2C69.4-25.8,69.4-25.8,69.4-25.7
					C69.4-25.7,69.4-25.7,69.4-25.7"/>
				<path class="st2" d="M61.8-25.7c0,0.1,0,0.1,0,0.2c-0.1,0.1-0.1,0.1-0.2,0.1c-0.1,0.1-0.1,0.3-0.1,0.4c-0.2,0.1,0,0.2,0,0.3
					c0,0,0,0.1,0,0.2c0,0.1,0,0.3,0.1,0.4c0.1,0.2,0.3,0.4,0.4,0.5c0.2,0.1,0.4,0.6,0.6,0.6c0.2,0,0.4-0.1,0.5-0.1
					c0.2,0,0.4,0,0.6-0.1c0.2-0.1,0.1-0.3,0.3-0.5c0.1-0.1,0.3,0,0.4-0.1c0.2-0.1,0.3-0.3,0.4-0.5c0-0.1,0-0.1,0-0.2
					c0-0.1,0.1-0.2,0.1-0.3c0-0.1-0.1-0.1-0.1-0.2c0-0.1,0-0.2,0-0.3c0-0.2,0-0.4-0.1-0.5c-0.4-0.7-1.2-0.9-2-0.8
					c-0.2,0-0.3,0.1-0.4,0.2c-0.2,0.1-0.1,0.2-0.3,0.2c-0.1,0-0.2,0.1-0.2,0.2C61.8-25.8,61.8-25.8,61.8-25.7
					C61.8-25.7,61.8-25.7,61.8-25.7"/>
				<path class="st2" d="M54.1-25.7c0,0.1,0,0.1,0,0.2c-0.1,0.1-0.1,0.1-0.2,0.1c-0.1,0.1-0.1,0.3-0.1,0.4c-0.2,0.1,0,0.2,0,0.3
					c0,0,0,0.1,0,0.2c0,0.1,0,0.3,0.1,0.4c0.1,0.2,0.3,0.4,0.4,0.5c0.2,0.1,0.4,0.6,0.6,0.6c0.2,0,0.4-0.1,0.5-0.1
					c0.2,0,0.4,0,0.6-0.1c0.2-0.1,0.1-0.3,0.3-0.5c0.1-0.1,0.3,0,0.4-0.1c0.2-0.1,0.3-0.3,0.4-0.5c0-0.1,0-0.1,0-0.2
					c0-0.1,0.1-0.2,0.1-0.3c0-0.1-0.1-0.1-0.1-0.2c0-0.1,0-0.2,0-0.3c0-0.2,0-0.4-0.1-0.5c-0.4-0.7-1.2-0.9-2-0.8
					c-0.2,0-0.3,0.1-0.4,0.2c-0.2,0.1-0.1,0.2-0.3,0.2c-0.1,0-0.2,0.1-0.2,0.2C54.1-25.8,54.1-25.8,54.1-25.7
					C54.1-25.7,54.1-25.7,54.1-25.7"/>
				<path class="st2" d="M46.5-25.7c0,0.1,0,0.1,0,0.2c-0.1,0.1-0.1,0.1-0.2,0.1c-0.1,0.1-0.1,0.3-0.1,0.4c-0.2,0.1,0,0.2,0,0.3
					c0,0,0,0.1,0,0.2c0,0.1,0,0.3,0.1,0.4c0.1,0.2,0.3,0.4,0.4,0.5c0.2,0.1,0.4,0.6,0.6,0.6c0.2,0,0.4-0.1,0.5-0.1
					c0.2,0,0.4,0,0.6-0.1c0.2-0.1,0.1-0.3,0.3-0.5c0.1-0.1,0.3,0,0.4-0.1c0.2-0.1,0.3-0.3,0.4-0.5c0-0.1,0-0.1,0-0.2
					c0-0.1,0.1-0.2,0.1-0.3c0-0.1-0.1-0.1-0.1-0.2c0-0.1,0-0.2,0-0.3c0-0.2,0-0.4-0.1-0.5c-0.4-0.7-1.2-0.9-2-0.8
					c-0.2,0-0.3,0.1-0.4,0.2c-0.2,0.1-0.1,0.2-0.3,0.2c-0.1,0-0.2,0.1-0.2,0.2C46.5-25.8,46.5-25.8,46.5-25.7
					C46.5-25.7,46.5-25.7,46.5-25.7"/>
				<path class="st2" d="M38.8-25.7c0,0.1,0,0.1,0,0.2c-0.1,0.1-0.1,0.1-0.2,0.1c-0.1,0.1-0.1,0.3-0.1,0.4c-0.2,0.1,0,0.2,0,0.3
					c0,0,0,0.1,0,0.2c0,0.1,0,0.3,0.1,0.4c0.1,0.2,0.3,0.4,0.4,0.5c0.2,0.1,0.4,0.6,0.6,0.6c0.2,0,0.4-0.1,0.5-0.1
					c0.2,0,0.4,0,0.6-0.1c0.2-0.1,0.1-0.3,0.3-0.5c0.1-0.1,0.3,0,0.4-0.1c0.2-0.1,0.3-0.3,0.4-0.5c0-0.1,0-0.1,0-0.2
					c0-0.1,0.1-0.2,0.1-0.3c0-0.1-0.1-0.1-0.1-0.2c0-0.1,0-0.2,0-0.3c0-0.2,0-0.4-0.1-0.5c-0.4-0.7-1.2-0.9-2-0.8
					c-0.2,0-0.3,0.1-0.4,0.2c-0.2,0.1-0.1,0.2-0.3,0.2c-0.1,0-0.2,0.1-0.2,0.2C38.8-25.8,38.8-25.8,38.8-25.7
					C38.8-25.7,38.8-25.7,38.8-25.7"/>
				<path class="st2" d="M31.1-25.7c0,0.1,0,0.1,0,0.2c-0.1,0.1-0.1,0.1-0.2,0.1c-0.1,0.1-0.1,0.3-0.1,0.4c-0.2,0.1,0,0.2,0,0.3
					c0,0,0,0.1,0,0.2c0,0.1,0,0.3,0.1,0.4c0.1,0.2,0.3,0.4,0.4,0.5c0.2,0.1,0.4,0.6,0.6,0.6c0.2,0,0.4-0.1,0.5-0.1
					c0.2,0,0.4,0,0.6-0.1c0.2-0.1,0.1-0.3,0.3-0.5c0.1-0.1,0.3,0,0.4-0.1c0.2-0.1,0.3-0.3,0.4-0.5c0-0.1,0-0.1,0-0.2
					c0-0.1,0.1-0.2,0.1-0.3c0-0.1-0.1-0.1-0.1-0.2c0-0.1,0-0.2,0-0.3c0-0.2,0-0.4-0.1-0.5c-0.4-0.7-1.2-0.9-2-0.8
					c-0.2,0-0.3,0.1-0.4,0.2c-0.2,0.1-0.1,0.2-0.3,0.2c-0.1,0-0.2,0.1-0.2,0.2C31.1-25.8,31.1-25.8,31.1-25.7
					C31.1-25.7,31.1-25.7,31.1-25.7"/>
				<path class="st2" d="M23.5-25.7c0,0.1,0,0.1,0,0.2c-0.1,0.1-0.1,0.1-0.2,0.1c-0.1,0.1-0.1,0.3-0.1,0.4c-0.2,0.1,0,0.2,0,0.3
					c0,0,0,0.1,0,0.2c0,0.1,0,0.3,0.1,0.4c0.1,0.2,0.3,0.4,0.4,0.5c0.2,0.1,0.4,0.6,0.6,0.6c0.2,0,0.4-0.1,0.5-0.1
					c0.2,0,0.4,0,0.6-0.1c0.2-0.1,0.1-0.3,0.3-0.5c0.1-0.1,0.3,0,0.4-0.1c0.2-0.1,0.3-0.3,0.4-0.5c0-0.1,0-0.1,0-0.2
					c0-0.1,0.1-0.2,0.1-0.3c0-0.1-0.1-0.1-0.1-0.2c0-0.1,0-0.2,0-0.3c0-0.2,0-0.4-0.1-0.5c-0.4-0.7-1.2-0.9-2-0.8
					c-0.2,0-0.3,0.1-0.4,0.2c-0.2,0.1-0.1,0.2-0.3,0.2c-0.1,0-0.2,0.1-0.2,0.2C23.5-25.8,23.5-25.8,23.5-25.7
					C23.5-25.7,23.5-25.7,23.5-25.7"/>
				<path class="st2" d="M15.8-25.7c0,0.1,0,0.1,0,0.2c-0.1,0.1-0.1,0.1-0.2,0.1c-0.1,0.1-0.1,0.3-0.1,0.4c-0.2,0.1,0,0.2,0,0.3
					c0,0,0,0.1,0,0.2c0,0.1,0,0.3,0.1,0.4c0.1,0.2,0.3,0.4,0.4,0.5c0.2,0.1,0.4,0.6,0.6,0.6c0.2,0,0.4-0.1,0.5-0.1
					c0.2,0,0.4,0,0.6-0.1c0.2-0.1,0.1-0.3,0.3-0.5c0.1-0.1,0.3,0,0.4-0.1c0.2-0.1,0.3-0.3,0.4-0.5c0-0.1,0-0.1,0-0.2
					c0-0.1,0.1-0.2,0.1-0.3c0-0.1-0.1-0.1-0.1-0.2c0-0.1,0-0.2,0-0.3c0-0.2,0-0.4-0.1-0.5c-0.4-0.7-1.2-0.9-2-0.8
					c-0.2,0-0.3,0.1-0.4,0.2c-0.2,0.1-0.1,0.2-0.3,0.2c-0.1,0-0.2,0.1-0.2,0.2C15.8-25.8,15.8-25.8,15.8-25.7
					C15.8-25.7,15.8-25.7,15.8-25.7"/>
				<path class="st2" d="M8.2-25.7c0,0.1,0,0.1,0,0.2C8.1-25.4,8-25.5,8-25.4c-0.1,0.1-0.1,0.3-0.1,0.4c-0.2,0.1,0,0.2,0,0.3
					c0,0,0,0.1,0,0.2c0,0.1,0,0.3,0.1,0.4C8-24,8.2-23.8,8.3-23.6c0.2,0.1,0.4,0.6,0.6,0.6c0.2,0,0.4-0.1,0.5-0.1
					c0.2,0,0.4,0,0.6-0.1c0.2-0.1,0.1-0.3,0.3-0.5c0.1-0.1,0.3,0,0.4-0.1c0.2-0.1,0.3-0.3,0.4-0.5c0-0.1,0-0.1,0-0.2
					c0-0.1,0.1-0.2,0.1-0.3c0-0.1-0.1-0.1-0.1-0.2c0-0.1,0-0.2,0-0.3c0-0.2,0-0.4-0.1-0.5c-0.4-0.7-1.2-0.9-2-0.8
					c-0.2,0-0.3,0.1-0.4,0.2c-0.2,0.1-0.1,0.2-0.3,0.2c-0.1,0-0.2,0.1-0.2,0.2C8.2-25.8,8.2-25.8,8.2-25.7
					C8.1-25.7,8.1-25.7,8.2-25.7"/>
				<path class="st2" d="M0.5-25.7c0,0.1,0,0.1,0,0.2c-0.1,0.1-0.1,0.1-0.2,0.1c-0.1,0.1-0.1,0.3-0.1,0.4c-0.2,0.1,0,0.2,0,0.3
					c0,0,0,0.1,0,0.2c0,0.1,0,0.3,0.1,0.4c0.1,0.2,0.3,0.4,0.4,0.5C0.9-23.5,1-23.1,1.3-23c0.2,0,0.4-0.1,0.5-0.1
					c0.2,0,0.4,0,0.6-0.1c0.2-0.1,0.1-0.3,0.3-0.5c0.1-0.1,0.3,0,0.4-0.1c0.2-0.1,0.3-0.3,0.4-0.5c0-0.1,0-0.1,0-0.2
					c0-0.1,0.1-0.2,0.1-0.3c0-0.1-0.1-0.1-0.1-0.2c0-0.1,0-0.2,0-0.3c0-0.2,0-0.4-0.1-0.5c-0.4-0.7-1.2-0.9-2-0.8
					c-0.2,0-0.3,0.1-0.4,0.2c-0.2,0.1-0.1,0.2-0.3,0.2c-0.1,0-0.2,0.1-0.2,0.2C0.5-25.8,0.5-25.8,0.5-25.7
					C0.5-25.7,0.5-25.7,0.5-25.7"/>
			</g>
			<g>
				<path class="st2" d="M69.4-18.1c0,0.1,0,0.1,0,0.2c-0.1,0.1-0.1,0.1-0.2,0.1c-0.1,0.1-0.1,0.3-0.1,0.4c-0.2,0.1,0,0.2,0,0.3
					c0,0,0,0.1,0,0.2c0,0.1,0,0.3,0.1,0.4c0.1,0.2,0.3,0.4,0.4,0.5c0.2,0.1,0.4,0.6,0.6,0.6c0.2,0,0.4-0.1,0.5-0.1
					c0.2,0,0.4,0,0.6-0.1c0.2-0.1,0.1-0.3,0.3-0.5c0.1-0.1,0.3,0,0.4-0.1c0.2-0.1,0.3-0.3,0.4-0.5c0-0.1,0-0.1,0-0.2
					c0-0.1,0.1-0.2,0.1-0.3c0-0.1-0.1-0.1-0.1-0.2c0-0.1,0-0.2,0-0.3c0-0.2,0-0.4-0.1-0.5c-0.4-0.7-1.2-0.9-2-0.8
					c-0.2,0-0.3,0.1-0.4,0.2c-0.2,0.1-0.1,0.2-0.3,0.2c-0.1,0-0.2,0.1-0.2,0.2C69.4-18.1,69.4-18.2,69.4-18.1
					C69.4-18,69.4-18.1,69.4-18.1"/>
				<path class="st2" d="M61.8-18.1c0,0.1,0,0.1,0,0.2c-0.1,0.1-0.1,0.1-0.2,0.1c-0.1,0.1-0.1,0.3-0.1,0.4c-0.2,0.1,0,0.2,0,0.3
					c0,0,0,0.1,0,0.2c0,0.1,0,0.3,0.1,0.4c0.1,0.2,0.3,0.4,0.4,0.5c0.2,0.1,0.4,0.6,0.6,0.6c0.2,0,0.4-0.1,0.5-0.1
					c0.2,0,0.4,0,0.6-0.1c0.2-0.1,0.1-0.3,0.3-0.5c0.1-0.1,0.3,0,0.4-0.1c0.2-0.1,0.3-0.3,0.4-0.5c0-0.1,0-0.1,0-0.2
					c0-0.1,0.1-0.2,0.1-0.3c0-0.1-0.1-0.1-0.1-0.2c0-0.1,0-0.2,0-0.3c0-0.2,0-0.4-0.1-0.5c-0.4-0.7-1.2-0.9-2-0.8
					c-0.2,0-0.3,0.1-0.4,0.2c-0.2,0.1-0.1,0.2-0.3,0.2c-0.1,0-0.2,0.1-0.2,0.2C61.8-18.1,61.8-18.2,61.8-18.1
					C61.8-18,61.8-18.1,61.8-18.1"/>
				<path class="st2" d="M54.1-18.1c0,0.1,0,0.1,0,0.2c-0.1,0.1-0.1,0.1-0.2,0.1c-0.1,0.1-0.1,0.3-0.1,0.4c-0.2,0.1,0,0.2,0,0.3
					c0,0,0,0.1,0,0.2c0,0.1,0,0.3,0.1,0.4c0.1,0.2,0.3,0.4,0.4,0.5c0.2,0.1,0.4,0.6,0.6,0.6c0.2,0,0.4-0.1,0.5-0.1
					c0.2,0,0.4,0,0.6-0.1c0.2-0.1,0.1-0.3,0.3-0.5c0.1-0.1,0.3,0,0.4-0.1c0.2-0.1,0.3-0.3,0.4-0.5c0-0.1,0-0.1,0-0.2
					c0-0.1,0.1-0.2,0.1-0.3c0-0.1-0.1-0.1-0.1-0.2c0-0.1,0-0.2,0-0.3c0-0.2,0-0.4-0.1-0.5c-0.4-0.7-1.2-0.9-2-0.8
					c-0.2,0-0.3,0.1-0.4,0.2c-0.2,0.1-0.1,0.2-0.3,0.2c-0.1,0-0.2,0.1-0.2,0.2C54.1-18.1,54.1-18.2,54.1-18.1
					C54.1-18,54.1-18.1,54.1-18.1"/>
				<path class="st2" d="M46.5-18.1c0,0.1,0,0.1,0,0.2c-0.1,0.1-0.1,0.1-0.2,0.1c-0.1,0.1-0.1,0.3-0.1,0.4c-0.2,0.1,0,0.2,0,0.3
					c0,0,0,0.1,0,0.2c0,0.1,0,0.3,0.1,0.4c0.1,0.2,0.3,0.4,0.4,0.5c0.2,0.1,0.4,0.6,0.6,0.6c0.2,0,0.4-0.1,0.5-0.1
					c0.2,0,0.4,0,0.6-0.1c0.2-0.1,0.1-0.3,0.3-0.5c0.1-0.1,0.3,0,0.4-0.1c0.2-0.1,0.3-0.3,0.4-0.5c0-0.1,0-0.1,0-0.2
					c0-0.1,0.1-0.2,0.1-0.3c0-0.1-0.1-0.1-0.1-0.2c0-0.1,0-0.2,0-0.3c0-0.2,0-0.4-0.1-0.5c-0.4-0.7-1.2-0.9-2-0.8
					c-0.2,0-0.3,0.1-0.4,0.2c-0.2,0.1-0.1,0.2-0.3,0.2c-0.1,0-0.2,0.1-0.2,0.2C46.5-18.1,46.5-18.2,46.5-18.1
					C46.5-18,46.5-18.1,46.5-18.1"/>
				<path class="st2" d="M38.8-18.1c0,0.1,0,0.1,0,0.2c-0.1,0.1-0.1,0.1-0.2,0.1c-0.1,0.1-0.1,0.3-0.1,0.4c-0.2,0.1,0,0.2,0,0.3
					c0,0,0,0.1,0,0.2c0,0.1,0,0.3,0.1,0.4c0.1,0.2,0.3,0.4,0.4,0.5c0.2,0.1,0.4,0.6,0.6,0.6c0.2,0,0.4-0.1,0.5-0.1
					c0.2,0,0.4,0,0.6-0.1c0.2-0.1,0.1-0.3,0.3-0.5c0.1-0.1,0.3,0,0.4-0.1c0.2-0.1,0.3-0.3,0.4-0.5c0-0.1,0-0.1,0-0.2
					c0-0.1,0.1-0.2,0.1-0.3c0-0.1-0.1-0.1-0.1-0.2c0-0.1,0-0.2,0-0.3c0-0.2,0-0.4-0.1-0.5c-0.4-0.7-1.2-0.9-2-0.8
					c-0.2,0-0.3,0.1-0.4,0.2c-0.2,0.1-0.1,0.2-0.3,0.2c-0.1,0-0.2,0.1-0.2,0.2C38.8-18.1,38.8-18.2,38.8-18.1
					C38.8-18,38.8-18.1,38.8-18.1"/>
				<path class="st2" d="M31.1-18.1c0,0.1,0,0.1,0,0.2c-0.1,0.1-0.1,0.1-0.2,0.1c-0.1,0.1-0.1,0.3-0.1,0.4c-0.2,0.1,0,0.2,0,0.3
					c0,0,0,0.1,0,0.2c0,0.1,0,0.3,0.1,0.4c0.1,0.2,0.3,0.4,0.4,0.5c0.2,0.1,0.4,0.6,0.6,0.6c0.2,0,0.4-0.1,0.5-0.1
					c0.2,0,0.4,0,0.6-0.1c0.2-0.1,0.1-0.3,0.3-0.5c0.1-0.1,0.3,0,0.4-0.1c0.2-0.1,0.3-0.3,0.4-0.5c0-0.1,0-0.1,0-0.2
					c0-0.1,0.1-0.2,0.1-0.3c0-0.1-0.1-0.1-0.1-0.2c0-0.1,0-0.2,0-0.3c0-0.2,0-0.4-0.1-0.5c-0.4-0.7-1.2-0.9-2-0.8
					c-0.2,0-0.3,0.1-0.4,0.2c-0.2,0.1-0.1,0.2-0.3,0.2c-0.1,0-0.2,0.1-0.2,0.2C31.1-18.1,31.1-18.2,31.1-18.1
					C31.1-18,31.1-18.1,31.1-18.1"/>
				<path class="st2" d="M23.5-18.1c0,0.1,0,0.1,0,0.2c-0.1,0.1-0.1,0.1-0.2,0.1c-0.1,0.1-0.1,0.3-0.1,0.4c-0.2,0.1,0,0.2,0,0.3
					c0,0,0,0.1,0,0.2c0,0.1,0,0.3,0.1,0.4c0.1,0.2,0.3,0.4,0.4,0.5c0.2,0.1,0.4,0.6,0.6,0.6c0.2,0,0.4-0.1,0.5-0.1
					c0.2,0,0.4,0,0.6-0.1c0.2-0.1,0.1-0.3,0.3-0.5c0.1-0.1,0.3,0,0.4-0.1c0.2-0.1,0.3-0.3,0.4-0.5c0-0.1,0-0.1,0-0.2
					c0-0.1,0.1-0.2,0.1-0.3c0-0.1-0.1-0.1-0.1-0.2c0-0.1,0-0.2,0-0.3c0-0.2,0-0.4-0.1-0.5c-0.4-0.7-1.2-0.9-2-0.8
					c-0.2,0-0.3,0.1-0.4,0.2c-0.2,0.1-0.1,0.2-0.3,0.2c-0.1,0-0.2,0.1-0.2,0.2C23.5-18.1,23.5-18.2,23.5-18.1
					C23.5-18,23.5-18.1,23.5-18.1"/>
				<path class="st2" d="M15.8-18.1c0,0.1,0,0.1,0,0.2c-0.1,0.1-0.1,0.1-0.2,0.1c-0.1,0.1-0.1,0.3-0.1,0.4c-0.2,0.1,0,0.2,0,0.3
					c0,0,0,0.1,0,0.2c0,0.1,0,0.3,0.1,0.4c0.1,0.2,0.3,0.4,0.4,0.5c0.2,0.1,0.4,0.6,0.6,0.6c0.2,0,0.4-0.1,0.5-0.1
					c0.2,0,0.4,0,0.6-0.1c0.2-0.1,0.1-0.3,0.3-0.5c0.1-0.1,0.3,0,0.4-0.1c0.2-0.1,0.3-0.3,0.4-0.5c0-0.1,0-0.1,0-0.2
					c0-0.1,0.1-0.2,0.1-0.3c0-0.1-0.1-0.1-0.1-0.2c0-0.1,0-0.2,0-0.3c0-0.2,0-0.4-0.1-0.5c-0.4-0.7-1.2-0.9-2-0.8
					c-0.2,0-0.3,0.1-0.4,0.2c-0.2,0.1-0.1,0.2-0.3,0.2c-0.1,0-0.2,0.1-0.2,0.2C15.8-18.1,15.8-18.2,15.8-18.1
					C15.8-18,15.8-18.1,15.8-18.1"/>
				<path class="st2" d="M8.2-18.1c0,0.1,0,0.1,0,0.2C8.1-17.8,8-17.8,8-17.8c-0.1,0.1-0.1,0.3-0.1,0.4c-0.2,0.1,0,0.2,0,0.3
					c0,0,0,0.1,0,0.2c0,0.1,0,0.3,0.1,0.4C8-16.3,8.2-16.1,8.3-16c0.2,0.1,0.4,0.6,0.6,0.6c0.2,0,0.4-0.1,0.5-0.1
					c0.2,0,0.4,0,0.6-0.1c0.2-0.1,0.1-0.3,0.3-0.5c0.1-0.1,0.3,0,0.4-0.1c0.2-0.1,0.3-0.3,0.4-0.5c0-0.1,0-0.1,0-0.2
					c0-0.1,0.1-0.2,0.1-0.3c0-0.1-0.1-0.1-0.1-0.2c0-0.1,0-0.2,0-0.3c0-0.2,0-0.4-0.1-0.5c-0.4-0.7-1.2-0.9-2-0.8
					c-0.2,0-0.3,0.1-0.4,0.2c-0.2,0.1-0.1,0.2-0.3,0.2c-0.1,0-0.2,0.1-0.2,0.2C8.2-18.1,8.2-18.2,8.2-18.1C8.1-18,8.1-18.1,8.2-18.1
					"/>
				<path class="st2" d="M0.5-18.1c0,0.1,0,0.1,0,0.2c-0.1,0.1-0.1,0.1-0.2,0.1c-0.1,0.1-0.1,0.3-0.1,0.4c-0.2,0.1,0,0.2,0,0.3
					c0,0,0,0.1,0,0.2c0,0.1,0,0.3,0.1,0.4c0.1,0.2,0.3,0.4,0.4,0.5c0.2,0.1,0.4,0.6,0.6,0.6c0.2,0,0.4-0.1,0.5-0.1
					c0.2,0,0.4,0,0.6-0.1c0.2-0.1,0.1-0.3,0.3-0.5C2.8-16.1,3-16,3.1-16c0.2-0.1,0.3-0.3,0.4-0.5c0-0.1,0-0.1,0-0.2
					c0-0.1,0.1-0.2,0.1-0.3c0-0.1-0.1-0.1-0.1-0.2c0-0.1,0-0.2,0-0.3c0-0.2,0-0.4-0.1-0.5c-0.4-0.7-1.2-0.9-2-0.8
					c-0.2,0-0.3,0.1-0.4,0.2c-0.2,0.1-0.1,0.2-0.3,0.2c-0.1,0-0.2,0.1-0.2,0.2C0.5-18.1,0.5-18.2,0.5-18.1C0.5-18,0.5-18.1,0.5-18.1
					"/>
			</g>
			<g>
				<path class="st2" d="M69.4-10.4c0,0.1,0,0.1,0,0.2c-0.1,0.1-0.1,0.1-0.2,0.1c-0.1,0.1-0.1,0.3-0.1,0.4c-0.2,0.1,0,0.2,0,0.3
					c0,0,0,0.1,0,0.2c0,0.1,0,0.3,0.1,0.4c0.1,0.2,0.3,0.4,0.4,0.5c0.2,0.1,0.4,0.6,0.6,0.6c0.2,0,0.4-0.1,0.5-0.1
					c0.2,0,0.4,0,0.6-0.1c0.2-0.1,0.1-0.3,0.3-0.5c0.1-0.1,0.3,0,0.4-0.1c0.2-0.1,0.3-0.3,0.4-0.5c0-0.1,0-0.1,0-0.2
					c0-0.1,0.1-0.2,0.1-0.3c0-0.1-0.1-0.1-0.1-0.2c0-0.1,0-0.2,0-0.3c0-0.2,0-0.4-0.1-0.5c-0.4-0.7-1.2-0.9-2-0.8
					c-0.2,0-0.3,0.1-0.4,0.2c-0.2,0.1-0.1,0.2-0.3,0.2c-0.1,0-0.2,0.1-0.2,0.2C69.4-10.5,69.4-10.5,69.4-10.4
					C69.4-10.4,69.4-10.4,69.4-10.4"/>
				<path class="st2" d="M61.8-10.4c0,0.1,0,0.1,0,0.2c-0.1,0.1-0.1,0.1-0.2,0.1c-0.1,0.1-0.1,0.3-0.1,0.4c-0.2,0.1,0,0.2,0,0.3
					c0,0,0,0.1,0,0.2c0,0.1,0,0.3,0.1,0.4c0.1,0.2,0.3,0.4,0.4,0.5c0.2,0.1,0.4,0.6,0.6,0.6c0.2,0,0.4-0.1,0.5-0.1
					c0.2,0,0.4,0,0.6-0.1C63.9-8,63.8-8.2,64-8.3c0.1-0.1,0.3,0,0.4-0.1c0.2-0.1,0.3-0.3,0.4-0.5c0-0.1,0-0.1,0-0.2
					c0-0.1,0.1-0.2,0.1-0.3c0-0.1-0.1-0.1-0.1-0.2c0-0.1,0-0.2,0-0.3c0-0.2,0-0.4-0.1-0.5c-0.4-0.7-1.2-0.9-2-0.8
					c-0.2,0-0.3,0.1-0.4,0.2c-0.2,0.1-0.1,0.2-0.3,0.2c-0.1,0-0.2,0.1-0.2,0.2C61.8-10.5,61.8-10.5,61.8-10.4
					C61.8-10.4,61.8-10.4,61.8-10.4"/>
				<path class="st2" d="M54.1-10.4c0,0.1,0,0.1,0,0.2c-0.1,0.1-0.1,0.1-0.2,0.1c-0.1,0.1-0.1,0.3-0.1,0.4c-0.2,0.1,0,0.2,0,0.3
					c0,0,0,0.1,0,0.2c0,0.1,0,0.3,0.1,0.4c0.1,0.2,0.3,0.4,0.4,0.5c0.2,0.1,0.4,0.6,0.6,0.6c0.2,0,0.4-0.1,0.5-0.1
					c0.2,0,0.4,0,0.6-0.1c0.2-0.1,0.1-0.3,0.3-0.5c0.1-0.1,0.3,0,0.4-0.1c0.2-0.1,0.3-0.3,0.4-0.5c0-0.1,0-0.1,0-0.2
					c0-0.1,0.1-0.2,0.1-0.3c0-0.1-0.1-0.1-0.1-0.2c0-0.1,0-0.2,0-0.3c0-0.2,0-0.4-0.1-0.5c-0.4-0.7-1.2-0.9-2-0.8
					c-0.2,0-0.3,0.1-0.4,0.2c-0.2,0.1-0.1,0.2-0.3,0.2c-0.1,0-0.2,0.1-0.2,0.2C54.1-10.5,54.1-10.5,54.1-10.4
					C54.1-10.4,54.1-10.4,54.1-10.4"/>
				<path class="st2" d="M46.5-10.4c0,0.1,0,0.1,0,0.2c-0.1,0.1-0.1,0.1-0.2,0.1c-0.1,0.1-0.1,0.3-0.1,0.4c-0.2,0.1,0,0.2,0,0.3
					c0,0,0,0.1,0,0.2c0,0.1,0,0.3,0.1,0.4c0.1,0.2,0.3,0.4,0.4,0.5c0.2,0.1,0.4,0.6,0.6,0.6c0.2,0,0.4-0.1,0.5-0.1
					c0.2,0,0.4,0,0.6-0.1c0.2-0.1,0.1-0.3,0.3-0.5c0.1-0.1,0.3,0,0.4-0.1c0.2-0.1,0.3-0.3,0.4-0.5c0-0.1,0-0.1,0-0.2
					c0-0.1,0.1-0.2,0.1-0.3c0-0.1-0.1-0.1-0.1-0.2c0-0.1,0-0.2,0-0.3c0-0.2,0-0.4-0.1-0.5c-0.4-0.7-1.2-0.9-2-0.8
					c-0.2,0-0.3,0.1-0.4,0.2c-0.2,0.1-0.1,0.2-0.3,0.2c-0.1,0-0.2,0.1-0.2,0.2C46.5-10.5,46.5-10.5,46.5-10.4
					C46.5-10.4,46.5-10.4,46.5-10.4"/>
				<path class="st2" d="M38.8-10.4c0,0.1,0,0.1,0,0.2c-0.1,0.1-0.1,0.1-0.2,0.1c-0.1,0.1-0.1,0.3-0.1,0.4c-0.2,0.1,0,0.2,0,0.3
					c0,0,0,0.1,0,0.2c0,0.1,0,0.3,0.1,0.4c0.1,0.2,0.3,0.4,0.4,0.5c0.2,0.1,0.4,0.6,0.6,0.6c0.2,0,0.4-0.1,0.5-0.1
					c0.2,0,0.4,0,0.6-0.1C40.9-8,40.8-8.2,41-8.3c0.1-0.1,0.3,0,0.4-0.1c0.2-0.1,0.3-0.3,0.4-0.5c0-0.1,0-0.1,0-0.2
					c0-0.1,0.1-0.2,0.1-0.3c0-0.1-0.1-0.1-0.1-0.2c0-0.1,0-0.2,0-0.3c0-0.2,0-0.4-0.1-0.5c-0.4-0.7-1.2-0.9-2-0.8
					c-0.2,0-0.3,0.1-0.4,0.2c-0.2,0.1-0.1,0.2-0.3,0.2c-0.1,0-0.2,0.1-0.2,0.2C38.8-10.5,38.8-10.5,38.8-10.4
					C38.8-10.4,38.8-10.4,38.8-10.4"/>
				<path class="st2" d="M31.1-10.4c0,0.1,0,0.1,0,0.2c-0.1,0.1-0.1,0.1-0.2,0.1c-0.1,0.1-0.1,0.3-0.1,0.4c-0.2,0.1,0,0.2,0,0.3
					c0,0,0,0.1,0,0.2c0,0.1,0,0.3,0.1,0.4c0.1,0.2,0.3,0.4,0.4,0.5c0.2,0.1,0.4,0.6,0.6,0.6c0.2,0,0.4-0.1,0.5-0.1
					c0.2,0,0.4,0,0.6-0.1c0.2-0.1,0.1-0.3,0.3-0.5c0.1-0.1,0.3,0,0.4-0.1c0.2-0.1,0.3-0.3,0.4-0.5c0-0.1,0-0.1,0-0.2
					c0-0.1,0.1-0.2,0.1-0.3c0-0.1-0.1-0.1-0.1-0.2c0-0.1,0-0.2,0-0.3c0-0.2,0-0.4-0.1-0.5c-0.4-0.7-1.2-0.9-2-0.8
					c-0.2,0-0.3,0.1-0.4,0.2c-0.2,0.1-0.1,0.2-0.3,0.2c-0.1,0-0.2,0.1-0.2,0.2C31.1-10.5,31.1-10.5,31.1-10.4
					C31.1-10.4,31.1-10.4,31.1-10.4"/>
				<path class="st2" d="M23.5-10.4c0,0.1,0,0.1,0,0.2c-0.1,0.1-0.1,0.1-0.2,0.1c-0.1,0.1-0.1,0.3-0.1,0.4c-0.2,0.1,0,0.2,0,0.3
					c0,0,0,0.1,0,0.2c0,0.1,0,0.3,0.1,0.4c0.1,0.2,0.3,0.4,0.4,0.5c0.2,0.1,0.4,0.6,0.6,0.6c0.2,0,0.4-0.1,0.5-0.1
					c0.2,0,0.4,0,0.6-0.1c0.2-0.1,0.1-0.3,0.3-0.5c0.1-0.1,0.3,0,0.4-0.1c0.2-0.1,0.3-0.3,0.4-0.5c0-0.1,0-0.1,0-0.2
					c0-0.1,0.1-0.2,0.1-0.3c0-0.1-0.1-0.1-0.1-0.2c0-0.1,0-0.2,0-0.3c0-0.2,0-0.4-0.1-0.5c-0.4-0.7-1.2-0.9-2-0.8
					c-0.2,0-0.3,0.1-0.4,0.2c-0.2,0.1-0.1,0.2-0.3,0.2c-0.1,0-0.2,0.1-0.2,0.2C23.5-10.5,23.5-10.5,23.5-10.4
					C23.5-10.4,23.5-10.4,23.5-10.4"/>
				<path class="st2" d="M15.8-10.4c0,0.1,0,0.1,0,0.2c-0.1,0.1-0.1,0.1-0.2,0.1c-0.1,0.1-0.1,0.3-0.1,0.4c-0.2,0.1,0,0.2,0,0.3
					c0,0,0,0.1,0,0.2c0,0.1,0,0.3,0.1,0.4c0.1,0.2,0.3,0.4,0.4,0.5c0.2,0.1,0.4,0.6,0.6,0.6c0.2,0,0.4-0.1,0.5-0.1
					c0.2,0,0.4,0,0.6-0.1C17.9-8,17.8-8.2,18-8.3c0.1-0.1,0.3,0,0.4-0.1c0.2-0.1,0.3-0.3,0.4-0.5c0-0.1,0-0.1,0-0.2
					c0-0.1,0.1-0.2,0.1-0.3c0-0.1-0.1-0.1-0.1-0.2c0-0.1,0-0.2,0-0.3c0-0.2,0-0.4-0.1-0.5c-0.4-0.7-1.2-0.9-2-0.8
					c-0.2,0-0.3,0.1-0.4,0.2c-0.2,0.1-0.1,0.2-0.3,0.2c-0.1,0-0.2,0.1-0.2,0.2C15.8-10.5,15.8-10.5,15.8-10.4
					C15.8-10.4,15.8-10.4,15.8-10.4"/>
				<path class="st2" d="M8.2-10.4c0,0.1,0,0.1,0,0.2C8.1-10.1,8-10.2,8-10.1C7.9-10,7.9-9.8,7.9-9.8c-0.2,0.1,0,0.2,0,0.3
					c0,0,0,0.1,0,0.2c0,0.1,0,0.3,0.1,0.4C8-8.7,8.2-8.5,8.3-8.3c0.2,0.1,0.4,0.6,0.6,0.6c0.2,0,0.4-0.1,0.5-0.1
					c0.2,0,0.4,0,0.6-0.1c0.2-0.1,0.1-0.3,0.3-0.5c0.1-0.1,0.3,0,0.4-0.1c0.2-0.1,0.3-0.3,0.4-0.5c0-0.1,0-0.1,0-0.2
					c0-0.1,0.1-0.2,0.1-0.3c0-0.1-0.1-0.1-0.1-0.2c0-0.1,0-0.2,0-0.3c0-0.2,0-0.4-0.1-0.5c-0.4-0.7-1.2-0.9-2-0.8
					c-0.2,0-0.3,0.1-0.4,0.2c-0.2,0.1-0.1,0.2-0.3,0.2c-0.1,0-0.2,0.1-0.2,0.2C8.2-10.5,8.2-10.5,8.2-10.4
					C8.1-10.4,8.1-10.4,8.2-10.4"/>
				<path class="st2" d="M0.5-10.4c0,0.1,0,0.1,0,0.2c-0.1,0.1-0.1,0.1-0.2,0.1C0.3-10,0.2-9.8,0.2-9.8c-0.2,0.1,0,0.2,0,0.3
					c0,0,0,0.1,0,0.2c0,0.1,0,0.3,0.1,0.4c0.1,0.2,0.3,0.4,0.4,0.5C0.9-8.2,1-7.8,1.3-7.7c0.2,0,0.4-0.1,0.5-0.1
					c0.2,0,0.4,0,0.6-0.1C2.6-8,2.5-8.2,2.7-8.3c0.1-0.1,0.3,0,0.4-0.1c0.2-0.1,0.3-0.3,0.4-0.5c0-0.1,0-0.1,0-0.2
					c0-0.1,0.1-0.2,0.1-0.3c0-0.1-0.1-0.1-0.1-0.2c0-0.1,0-0.2,0-0.3c0-0.2,0-0.4-0.1-0.5c-0.4-0.7-1.2-0.9-2-0.8
					c-0.2,0-0.3,0.1-0.4,0.2c-0.2,0.1-0.1,0.2-0.3,0.2c-0.1,0-0.2,0.1-0.2,0.2C0.5-10.5,0.5-10.5,0.5-10.4
					C0.5-10.4,0.5-10.4,0.5-10.4"/>
			</g>
		</g>
		<g>
			<path class="st2" d="M69.4-2.8c0,0.1,0,0.1,0,0.2c-0.1,0.1-0.1,0.1-0.2,0.1c-0.1,0.1-0.1,0.3-0.1,0.4c-0.2,0.1,0,0.2,0,0.3
				c0,0,0,0.1,0,0.2c0,0.1,0,0.3,0.1,0.4c0.1,0.2,0.3,0.4,0.4,0.5C69.8-0.5,70-0.1,70.2,0c0.2,0,0.4-0.1,0.5-0.1
				c0.2,0,0.4,0,0.6-0.1c0.2-0.1,0.1-0.3,0.3-0.5c0.1-0.1,0.3,0,0.4-0.1c0.2-0.1,0.3-0.3,0.4-0.5c0-0.1,0-0.1,0-0.2
				c0-0.1,0.1-0.2,0.1-0.3c0-0.1-0.1-0.1-0.1-0.2c0-0.1,0-0.2,0-0.3c0-0.2,0-0.4-0.1-0.5c-0.4-0.7-1.2-0.9-2-0.8
				c-0.2,0-0.3,0.1-0.4,0.2c-0.2,0.1-0.1,0.2-0.3,0.2c-0.1,0-0.2,0.1-0.2,0.2C69.4-2.8,69.4-2.9,69.4-2.8
				C69.4-2.7,69.4-2.8,69.4-2.8"/>
			<path class="st2" d="M61.8-2.8c0,0.1,0,0.1,0,0.2c-0.1,0.1-0.1,0.1-0.2,0.1c-0.1,0.1-0.1,0.3-0.1,0.4c-0.2,0.1,0,0.2,0,0.3
				c0,0,0,0.1,0,0.2c0,0.1,0,0.3,0.1,0.4C61.6-1,61.8-0.8,62-0.7c0.2,0.1,0.4,0.6,0.6,0.6c0.2,0,0.4-0.1,0.5-0.1
				c0.2,0,0.4,0,0.6-0.1c0.2-0.1,0.1-0.3,0.3-0.5c0.1-0.1,0.3,0,0.4-0.1c0.2-0.1,0.3-0.3,0.4-0.5c0-0.1,0-0.1,0-0.2
				c0-0.1,0.1-0.2,0.1-0.3c0-0.1-0.1-0.1-0.1-0.2c0-0.1,0-0.2,0-0.3c0-0.2,0-0.4-0.1-0.5c-0.4-0.7-1.2-0.9-2-0.8
				c-0.2,0-0.3,0.1-0.4,0.2c-0.2,0.1-0.1,0.2-0.3,0.2c-0.1,0-0.2,0.1-0.2,0.2C61.8-2.8,61.8-2.9,61.8-2.8
				C61.8-2.7,61.8-2.8,61.8-2.8"/>
			<path class="st2" d="M54.1-2.8c0,0.1,0,0.1,0,0.2C54-2.5,54-2.5,53.9-2.5c-0.1,0.1-0.1,0.3-0.1,0.4c-0.2,0.1,0,0.2,0,0.3
				c0,0,0,0.1,0,0.2c0,0.1,0,0.3,0.1,0.4C54-1,54.1-0.8,54.3-0.7c0.2,0.1,0.4,0.6,0.6,0.6c0.2,0,0.4-0.1,0.5-0.1
				c0.2,0,0.4,0,0.6-0.1c0.2-0.1,0.1-0.3,0.3-0.5c0.1-0.1,0.3,0,0.4-0.1C56.9-0.8,57-1,57.1-1.2c0-0.1,0-0.1,0-0.2
				c0-0.1,0.1-0.2,0.1-0.3c0-0.1-0.1-0.1-0.1-0.2c0-0.1,0-0.2,0-0.3c0-0.2,0-0.4-0.1-0.5c-0.4-0.7-1.2-0.9-2-0.8
				c-0.2,0-0.3,0.1-0.4,0.2c-0.2,0.1-0.1,0.2-0.3,0.2c-0.1,0-0.2,0.1-0.2,0.2C54.1-2.8,54.1-2.9,54.1-2.8
				C54.1-2.7,54.1-2.8,54.1-2.8"/>
			<path class="st2" d="M46.5-2.8c0,0.1,0,0.1,0,0.2c-0.1,0.1-0.1,0.1-0.2,0.1c-0.1,0.1-0.1,0.3-0.1,0.4c-0.2,0.1,0,0.2,0,0.3
				c0,0,0,0.1,0,0.2c0,0.1,0,0.3,0.1,0.4c0.1,0.2,0.3,0.4,0.4,0.5C46.8-0.5,47-0.1,47.2,0c0.2,0,0.4-0.1,0.5-0.1
				c0.2,0,0.4,0,0.6-0.1c0.2-0.1,0.1-0.3,0.3-0.5c0.1-0.1,0.3,0,0.4-0.1c0.2-0.1,0.3-0.3,0.4-0.5c0-0.1,0-0.1,0-0.2
				c0-0.1,0.1-0.2,0.1-0.3c0-0.1-0.1-0.1-0.1-0.2c0-0.1,0-0.2,0-0.3c0-0.2,0-0.4-0.1-0.5c-0.4-0.7-1.2-0.9-2-0.8
				c-0.2,0-0.3,0.1-0.4,0.2c-0.2,0.1-0.1,0.2-0.3,0.2c-0.1,0-0.2,0.1-0.2,0.2C46.5-2.8,46.5-2.9,46.5-2.8
				C46.5-2.7,46.5-2.8,46.5-2.8"/>
			<path class="st2" d="M38.8-2.8c0,0.1,0,0.1,0,0.2c-0.1,0.1-0.1,0.1-0.2,0.1c-0.1,0.1-0.1,0.3-0.1,0.4c-0.2,0.1,0,0.2,0,0.3
				c0,0,0,0.1,0,0.2c0,0.1,0,0.3,0.1,0.4C38.6-1,38.8-0.8,39-0.7c0.2,0.1,0.4,0.6,0.6,0.6c0.2,0,0.4-0.1,0.5-0.1
				c0.2,0,0.4,0,0.6-0.1c0.2-0.1,0.1-0.3,0.3-0.5c0.1-0.1,0.3,0,0.4-0.1c0.2-0.1,0.3-0.3,0.4-0.5c0-0.1,0-0.1,0-0.2
				c0-0.1,0.1-0.2,0.1-0.3c0-0.1-0.1-0.1-0.1-0.2c0-0.1,0-0.2,0-0.3c0-0.2,0-0.4-0.1-0.5c-0.4-0.7-1.2-0.9-2-0.8
				c-0.2,0-0.3,0.1-0.4,0.2c-0.2,0.1-0.1,0.2-0.3,0.2c-0.1,0-0.2,0.1-0.2,0.2C38.8-2.8,38.8-2.9,38.8-2.8
				C38.8-2.7,38.8-2.8,38.8-2.8"/>
			<path class="st2" d="M31.1-2.8c0,0.1,0,0.1,0,0.2c-0.1,0.1-0.1,0.1-0.2,0.1c-0.1,0.1-0.1,0.3-0.1,0.4c-0.2,0.1,0,0.2,0,0.3
				c0,0,0,0.1,0,0.2c0,0.1,0,0.3,0.1,0.4C31-1,31.1-0.8,31.3-0.7c0.2,0.1,0.4,0.6,0.6,0.6c0.2,0,0.4-0.1,0.5-0.1
				c0.2,0,0.4,0,0.6-0.1c0.2-0.1,0.1-0.3,0.3-0.5c0.1-0.1,0.3,0,0.4-0.1c0.2-0.1,0.3-0.3,0.4-0.5c0-0.1,0-0.1,0-0.2
				c0-0.1,0.1-0.2,0.1-0.3c0-0.1-0.1-0.1-0.1-0.2c0-0.1,0-0.2,0-0.3c0-0.2,0-0.4-0.1-0.5c-0.4-0.7-1.2-0.9-2-0.8
				c-0.2,0-0.3,0.1-0.4,0.2c-0.2,0.1-0.1,0.2-0.3,0.2c-0.1,0-0.2,0.1-0.2,0.2C31.1-2.8,31.1-2.9,31.1-2.8
				C31.1-2.7,31.1-2.8,31.1-2.8"/>
			<path class="st2" d="M23.5-2.8c0,0.1,0,0.1,0,0.2c-0.1,0.1-0.1,0.1-0.2,0.1c-0.1,0.1-0.1,0.3-0.1,0.4c-0.2,0.1,0,0.2,0,0.3
				c0,0,0,0.1,0,0.2c0,0.1,0,0.3,0.1,0.4c0.1,0.2,0.3,0.4,0.4,0.5C23.8-0.5,24-0.1,24.3,0c0.2,0,0.4-0.1,0.5-0.1
				c0.2,0,0.4,0,0.6-0.1c0.2-0.1,0.1-0.3,0.3-0.5c0.1-0.1,0.3,0,0.4-0.1c0.2-0.1,0.3-0.3,0.4-0.5c0-0.1,0-0.1,0-0.2
				c0-0.1,0.1-0.2,0.1-0.3c0-0.1-0.1-0.1-0.1-0.2c0-0.1,0-0.2,0-0.3c0-0.2,0-0.4-0.1-0.5c-0.4-0.7-1.2-0.9-2-0.8
				c-0.2,0-0.3,0.1-0.4,0.2c-0.2,0.1-0.1,0.2-0.3,0.2c-0.1,0-0.2,0.1-0.2,0.2C23.5-2.8,23.5-2.9,23.5-2.8
				C23.5-2.7,23.5-2.8,23.5-2.8"/>
			<path class="st2" d="M15.8-2.8c0,0.1,0,0.1,0,0.2c-0.1,0.1-0.1,0.1-0.2,0.1c-0.1,0.1-0.1,0.3-0.1,0.4c-0.2,0.1,0,0.2,0,0.3
				c0,0,0,0.1,0,0.2c0,0.1,0,0.3,0.1,0.4C15.7-1,15.8-0.8,16-0.7c0.2,0.1,0.4,0.6,0.6,0.6c0.2,0,0.4-0.1,0.5-0.1
				c0.2,0,0.4,0,0.6-0.1c0.2-0.1,0.1-0.3,0.3-0.5c0.1-0.1,0.3,0,0.4-0.1c0.2-0.1,0.3-0.3,0.4-0.5c0-0.1,0-0.1,0-0.2
				c0-0.1,0.1-0.2,0.1-0.3c0-0.1-0.1-0.1-0.1-0.2c0-0.1,0-0.2,0-0.3c0-0.2,0-0.4-0.1-0.5c-0.4-0.7-1.2-0.9-2-0.8
				c-0.2,0-0.3,0.1-0.4,0.2c-0.2,0.1-0.1,0.2-0.3,0.2c-0.1,0-0.2,0.1-0.2,0.2C15.8-2.8,15.8-2.9,15.8-2.8
				C15.8-2.7,15.8-2.8,15.8-2.8"/>
			<path class="st2" d="M8.2-2.8c0,0.1,0,0.1,0,0.2C8.1-2.5,8-2.5,8-2.5C7.9-2.4,7.9-2.2,7.9-2.1c-0.2,0.1,0,0.2,0,0.3
				c0,0,0,0.1,0,0.2c0,0.1,0,0.3,0.1,0.4C8-1,8.2-0.8,8.3-0.7C8.5-0.5,8.7-0.1,8.9,0c0.2,0,0.4-0.1,0.5-0.1c0.2,0,0.4,0,0.6-0.1
				c0.2-0.1,0.1-0.3,0.3-0.5c0.1-0.1,0.3,0,0.4-0.1c0.2-0.1,0.3-0.3,0.4-0.5c0-0.1,0-0.1,0-0.2c0-0.1,0.1-0.2,0.1-0.3
				c0-0.1-0.1-0.1-0.1-0.2c0-0.1,0-0.2,0-0.3c0-0.2,0-0.4-0.1-0.5c-0.4-0.7-1.2-0.9-2-0.8C9-3.5,8.8-3.4,8.7-3.4
				C8.5-3.3,8.6-3.2,8.4-3.1C8.3-3.1,8.2-3,8.2-2.9C8.2-2.8,8.2-2.9,8.2-2.8C8.1-2.7,8.1-2.8,8.2-2.8"/>
			<path class="st2" d="M0.5-2.8c0,0.1,0,0.1,0,0.2C0.4-2.5,0.4-2.5,0.3-2.5C0.3-2.4,0.2-2.2,0.2-2.1c-0.2,0.1,0,0.2,0,0.3
				c0,0,0,0.1,0,0.2c0,0.1,0,0.3,0.1,0.4C0.3-1,0.5-0.8,0.7-0.7C0.9-0.5,1-0.1,1.3,0c0.2,0,0.4-0.1,0.5-0.1c0.2,0,0.4,0,0.6-0.1
				c0.2-0.1,0.1-0.3,0.3-0.5c0.1-0.1,0.3,0,0.4-0.1C3.3-0.8,3.4-1,3.5-1.2c0-0.1,0-0.1,0-0.2c0-0.1,0.1-0.2,0.1-0.3
				c0-0.1-0.1-0.1-0.1-0.2c0-0.1,0-0.2,0-0.3c0-0.2,0-0.4-0.1-0.5c-0.4-0.7-1.2-0.9-2-0.8C1.3-3.5,1.2-3.4,1-3.4
				C0.9-3.3,0.9-3.2,0.7-3.1C0.6-3.1,0.5-3,0.5-2.9C0.5-2.8,0.5-2.9,0.5-2.8C0.5-2.7,0.5-2.8,0.5-2.8"/>
		</g>
	</g>
</pattern>
<g>
	<path d="M1.3,22.7c0-4.3,1.2-8.6,3.3-12.1C8.9,3.5,16.6,0,27.8,0c8.4,0,14.7,2.1,18.5,6c2.1,2.3,3.1,4.7,3.3,9h-9
		c-0.2-2.1-0.6-3.1-1.6-4.2c-2.3-2.7-6.3-4.3-11.3-4.3c-6.3,0-11.4,2.2-14.1,6.2c-1.9,2.9-3.1,6.5-3.1,10.3
		c0,9.9,6.8,15.9,17.7,15.9c3.7,0,7.2-0.5,12.7-1.8v-9.2H26.7v-6.6h22.8v20.7c-7.1,2.5-13.8,3.6-20.9,3.6c-9.7,0-18-2.9-22.3-7.9
		C3.2,34.1,1.3,28.3,1.3,22.7z"/>
	<path d="M52,22.8c0-7.7,2.7-14.2,7.2-17.9C63.3,1.6,69.3,0,77.2,0c15.5,0,23.9,8.1,23.9,22.9c0,7.5-2.7,14.2-7.1,17.7
		c-4,3.2-10.1,4.9-17.5,4.9c-7.4,0-13.4-1.7-17.4-4.9C54.6,37,52,30.5,52,22.8z M76.6,39c5.5,0,10.3-2,12.9-5.5
		c1.8-2.4,2.9-6.4,2.9-10.7c0-5.2-1.4-9.2-4-11.9c-2.5-2.6-7.2-4.3-11.6-4.3c-10.4,0-16.1,5.7-16.1,16.1c0,5.3,1.4,9.4,4,12.1
		C67.4,37.4,71.8,39,76.6,39z"/>
	<path d="M104.1,1.1h8.6v36.7h24.9v6.6h-33.5V1.1z"/>
	<path d="M140.2,1.1h20.2c7.1,0,11.7,0.9,16,3.2c6.2,3.3,9.9,10.1,9.9,18.4c0,8.7-3.8,15.7-10.1,18.8c-4.4,2.2-9,3-17,3h-18.9V1.1z
		 M159.6,37.8c12,0,17.7-4.7,17.7-14.5c0-4.5-1.2-8.4-3.5-10.9c-3.2-3.4-7.5-4.7-15.3-4.7h-9.7v30.1H159.6z"/>
	<path d="M189.3,1.1h33.7v6.6h-25.1v10.8h24v6.6h-24v12.7h26.3v6.6h-34.9V1.1z"/>
	<path d="M229.2,1.1h13.3l24,35.2V1.1h7.5v43.4h-12.2l-25-36.3v36.3h-7.5V1.1z"/>
	<path d="M297.1,22.7c0-4.3,1.2-8.6,3.3-12.1c4.3-7.1,12-10.6,23.2-10.6c8.4,0,14.7,2.1,18.5,6c2.1,2.3,3.1,4.7,3.3,9h-9
		c-0.2-2.1-0.6-3.1-1.6-4.2c-2.3-2.7-6.3-4.3-11.3-4.3c-6.3,0-11.4,2.2-14.1,6.2c-2,2.9-3.1,6.5-3.1,10.3c0,9.9,6.8,15.9,17.7,15.9
		c3.7,0,7.2-0.5,12.7-1.8v-9.2h-14.2v-6.6h22.8v20.7c-7.1,2.5-13.8,3.6-20.9,3.6c-9.7,0-18-2.9-22.3-7.9
		C299,34.1,297.1,28.3,297.1,22.7z"/>
	<path d="M368.7,1.1h11.6l22.3,43.4h-9.8l-4.9-9.8h-27.7l-4.7,9.8h-8.8L368.7,1.1z M384.6,28L373.9,6.8L363.6,28H384.6z"/>
	<path d="M410.6,7.7h-18.7V1.1h45.8v6.6h-18.6v36.7h-8.6V7.7z"/>
	<path d="M440.4,1.1h33.7v6.6H449v10.8h24v6.6h-24v12.7h26.3v6.6h-34.9V1.1z"/>
	<path d="M2.9,81.7V62.1h8.6v19.2c0,5.5,0.2,7.7,0.9,10.2c1.5,5.1,6.3,8.3,12.7,8.3c6.3,0,11.1-3.2,12.6-8.3
		c0.7-2.5,0.9-4.7,0.9-10.2V62.1h8.6v19.6c0,7.9-1,12.8-3.4,16.4c-3.6,5.4-10.3,8.5-18.7,8.5c-9,0-15.9-3.4-19.3-9.6
		C3.8,93.6,2.9,88.8,2.9,81.7z"/>
	<path d="M61.3,62.1h13.3l24,35.2V62.1h7.5v43.4H93.8l-25-36.3v36.3h-7.5V62.1z"/>
	<path d="M120.2,62.1h8.6v43.4h-8.6V62.1z"/>
	<path d="M138.5,62.1h9.7l16.4,36.4L181,62.1h8.7l-20.6,43.4h-10.3L138.5,62.1z"/>
	<path d="M199.6,62.1h33.7v6.6h-25.1v10.8h24v6.6h-24v12.7h26.3v6.6h-34.9V62.1z"/>
	<path d="M247.6,62.1H270c6.5,0,8.9,0.3,11.8,1.6c4,1.8,6.3,5.3,6.3,9.8c0,6.2-4,9.9-11.8,10.7v0.6c8.1,0.2,10.1,2.5,10.9,11.1
		l0.9,9.6H279l-0.7-9.2c-0.3-3.3-0.8-5.1-2.1-6.5c-1.4-1.6-3.1-2-7.8-2h-12.2v17.7h-8.6V62.1z M267.8,81.2c5,0,6.9-0.4,8.9-1.8
		c1.3-1,2.1-2.8,2.1-4.6c0-4.1-3.1-6-9.6-6h-13.1v12.4H267.8z"/>
	<path d="M299.3,91h8.5c0.2,6,4.4,9,12.7,9c7.8,0,12.4-2.5,12.4-6.7c0-3.5-2.4-5.1-8.6-5.8l-7.5-0.8c-4.5-0.5-7.7-1.4-10.5-2.9
		c-3.5-2-5.8-5.7-5.8-9.7c0-4.1,2.2-7.8,6.1-10.1c3-1.8,8.4-2.9,14.4-2.9c13.5,0,19.6,4.6,19.7,14.8H332c-0.1-2.6-0.6-4-1.8-5.3
		c-1.8-2-5.3-3.2-9.4-3.2c-6.6,0-11.2,2.3-11.2,5.8c0,1.6,0.8,3.1,2.1,3.9c1.6,1,2.5,1.2,8.4,1.9l7,0.8c10.4,1.2,15.1,5.1,15.1,12.5
		c0,4.5-2.1,8.3-6.2,10.9c-3.4,2.1-9.3,3.4-15.9,3.4c-13.5,0-20.8-5.1-20.8-14.4V91z"/>
	<path d="M354.3,62.1h8.6v43.4h-8.6V62.1z"/>
	<path d="M391.3,68.7h-18.7v-6.6h45.8v6.6h-18.6v36.7h-8.6V68.7z"/>
	<path d="M446.9,88.6l-20.9-26.5h11.1l14.8,19.6l15.5-19.6h9.8l-21.6,26.8v16.6h-8.6V88.6z"/>
</g>
</svg>
